<?xml version="1.0" standalone="no"?>
<!DOCTYPE svg PUBLIC "-//W3C//DTD SVG 20010904//EN"
 "http://www.w3.org/TR/2001/REC-SVG-20010904/DTD/svg10.dtd">
<svg version="1.0" xmlns="http://www.w3.org/2000/svg"
 width="1024.000000pt" height="1024.000000pt" viewBox="0 0 1024.000000 1024.000000"
 preserveAspectRatio="xMidYMid meet">
<metadata>
Created by potrace 1.14, written by Peter Selinger 2001-2017
</metadata>
<g transform="translate(0.000000,1024.000000) scale(0.100000,-0.100000)"
fill="#000000" stroke="none">
<path d="M0 5120 l0 -5120 5120 0 5120 0 0 5120 0 5120 -5120 0 -5120 0 0
-5120z m7896 3078 c291 -295 439 -447 442 -456 1 -5 -149 -160 -333 -346 -291
-293 -334 -340 -323 -353 20 -25 91 -98 362 -373 139 -140 262 -269 274 -287
l22 -32 -321 -322 -321 -322 -205 204 c-112 112 -266 266 -341 342 -74 75
-139 137 -143 137 -5 0 -59 -51 -121 -112 -63 -62 -176 -173 -253 -247 -77
-74 -183 -177 -236 -228 l-95 -93 -322 321 c-177 176 -322 324 -322 327 0 4
151 160 335 347 184 187 335 344 335 350 0 5 -151 161 -335 345 -184 184 -335
338 -335 342 0 4 144 152 320 329 l320 321 33 -29 c17 -16 174 -169 347 -341
173 -171 320 -312 325 -312 7 0 687 678 691 688 0 1 90 -89 200 -200z m-3675
-623 c1 -272 3 -499 4 -505 1 -5 3 -23 4 -40 l1 -30 425 0 425 0 0 -485 0
-485 -427 -2 -428 -3 -3 -532 -2 -533 -490 0 -490 0 -2 533 -3 532 -604 3
-604 2 6 113 c4 61 7 282 7 490 l0 378 598 -2 597 -2 3 531 2 532 490 0 490 0
1 -495z m-1113 -3697 l2 -438 -535 0 -535 0 0 440 0 440 533 -2 532 -3 3 -437z
m1277 -3 l0 -440 -572 -3 -573 -2 0 445 0 445 573 -2 572 -3 0 -440z m1375 6
l0 -439 -212 -7 c-117 -3 -400 -5 -628 -3 l-415 3 -3 443 -2 442 630 0 630 0
0 -439z m1200 0 c0 -342 -3 -440 -12 -443 -7 -3 -125 -3 -263 -1 -137 2 -377
3 -532 3 l-283 0 0 440 0 440 545 0 545 0 0 -439z m1228 -3 l2 -438 -555 0
-555 0 0 440 0 440 553 -2 552 -3 3 -437z m-3800 -1485 l2 -473 -575 0 -575 0
-1 433 c-1 237 -3 446 -5 462 -7 59 -42 55 578 53 l573 -3 3 -472z m1365 335
c4 -79 7 -293 7 -475 l0 -333 -630 0 -630 0 0 468 c0 258 3 472 7 475 3 4 284
7 623 7 l617 0 6 -142z m1195 -335 l-3 -478 -530 4 c-372 3 -532 7 -537 15 -4
6 -8 219 -8 474 l0 462 540 0 540 0 -2 -477z"/>
</g>
</svg>
