<?xml version="1.0" standalone="no"?>
<!DOCTYPE svg PUBLIC "-//W3C//DTD SVG 20010904//EN"
 "http://www.w3.org/TR/2001/REC-SVG-20010904/DTD/svg10.dtd">
<svg version="1.0" xmlns="http://www.w3.org/2000/svg"
 width="1064.000000pt" height="1064.000000pt" viewBox="0 0 1064.000000 1064.000000"
 preserveAspectRatio="xMidYMid meet">
<metadata>
Created by potrace 1.14, written by Peter Selinger 2001-2017
</metadata>
<g transform="translate(0.000000,1064.000000) scale(0.100000,-0.100000)"
fill="#000000" stroke="none">
<path d="M200 5320 l0 -5120 5120 0 5120 0 0 5120 0 5120 -5120 0 -5120 0 0
-5120z m6651 2930 c189 -187 349 -340 354 -340 6 0 163 153 350 340 187 187
342 340 346 340 7 0 632 -637 637 -649 1 -4 -149 -159 -334 -345 -298 -299
-334 -339 -322 -354 7 -9 126 -132 264 -272 421 -429 395 -397 370 -435 -26
-39 -605 -615 -619 -615 -7 0 -163 151 -347 335 -184 184 -339 335 -344 335
-5 0 -52 -44 -105 -98 -53 -54 -206 -204 -341 -334 -135 -130 -248 -239 -251
-242 -6 -6 -649 631 -649 642 0 4 151 160 335 346 184 187 335 344 335 350 0
6 -151 162 -335 346 -184 184 -334 339 -332 345 4 11 629 643 638 644 3 1 161
-152 350 -339z m-2429 -512 l3 -533 428 -3 427 -2 0 -485 0 -485 -427 -2 -428
-3 -3 -532 -2 -533 -490 0 -490 0 -2 533 -3 532 -604 3 -604 2 6 68 c4 37 7
258 7 491 l0 423 598 -3 597 -4 3 533 2 532 490 0 490 0 2 -532z m-1114 -3660
l2 -438 -535 0 -535 0 0 440 0 440 533 -2 532 -3 3 -437z m1277 -3 l0 -440
-572 -3 -573 -2 0 445 0 445 573 -2 572 -3 0 -440z m1375 6 l0 -439 -362 -7
c-200 -3 -482 -5 -628 -3 l-265 3 -3 443 -2 442 630 0 630 0 0 -439z m1200 -1
l0 -440 -545 0 -545 0 0 440 0 440 545 0 545 0 0 -440z m1227 -2 l3 -438 -555
0 -555 0 0 440 0 440 553 -2 552 -3 2 -437z m-3799 -1485 l2 -473 -575 0 -575
0 0 475 0 475 573 -2 572 -3 3 -472z m1365 325 c4 -83 7 -297 7 -475 l0 -323
-630 0 -630 0 0 468 c0 258 3 472 7 475 3 4 284 7 623 7 l617 0 6 -152z m1195
-325 l-3 -478 -530 4 c-291 2 -532 5 -534 7 -3 3 -7 216 -9 474 l-5 470 542 0
541 0 -2 -477z"/>
</g>
</svg>
