<?xml version="1.0" standalone="no"?>
<!DOCTYPE svg PUBLIC "-//W3C//DTD SVG 1.1//EN" "http://www.w3.org/Graphics/SVG/1.1/DTD/svg11.dtd" >
<svg xmlns="http://www.w3.org/2000/svg" xmlns:xlink="http://www.w3.org/1999/xlink" version="1.1">
<metadata>
Created by FontForge 20170910 at Sat Jun 27 16:41:44 2015
 By Jimmy Wärting
Typeface (c) ihsan habib. 2015. All Rights Reserved
</metadata>
<defs>
<font id="Reislust" horiz-adv-x="383" >
  <font-face 
    font-family="Reislust"
    font-weight="400"
    font-stretch="normal"
    units-per-em="2048"
    panose-1="0 0 0 0 0 0 0 0 0 0"
    ascent="1638"
    descent="-410"
    x-height="636"
    cap-height="638"
    bbox="-65.0417 -267.397 951.032 658.077"
    underline-thickness="150"
    underline-position="-288"
    unicode-range="U+000D-FB02"
  />
<missing-glyph 
 />
    <glyph glyph-name=".notdef" 
 />
    <glyph glyph-name="NULL" 
 />
    <glyph glyph-name="NULL" 
 />
    <glyph glyph-name="nonmarkingreturn" unicode="&#xd;" 
 />
    <glyph glyph-name="space" unicode=" " 
 />
    <glyph glyph-name="uni001D" 
 />
    <glyph glyph-name="exclam" unicode="!" 
 />
    <glyph glyph-name="quotedbl" unicode="&#x22;" 
 />
    <glyph glyph-name="numbersign" unicode="#" horiz-adv-x="727" 
d="M156 646q10 6 22 5q31 -7 28 -43q-1 -12 -3 -25.5t-5 -28.5q-6 -32 4 -45q6 -10 17 -14t28 -6q18 -2 35 -1.5t35 -0.5l23 -1l4 22l11 67q4 23 9.5 39t11.5 26q17 21 41 6q8 -6 8 -17.5t-5 -29.5l-12 -40q-2 -13 -3.5 -20.5t-1.5 -11.5q-5 -35 22 -41q34 -9 38 -28
q2 -10 -5 -18q-12 -16 -31 -13t-34 -13q-6 -6 -8 -16q-5 -26 -6 -61q-1 -34 28 -48q10 -6 41 -4q8 0 9 -1q6 -5 6 -27q-1 -14 -10 -21q-7 -5 -20 -6.5t-32 -2.5q-26 0 -44 -18t-21.5 -44t-5.5 -49l-1.5 -4.5t-0.5 -3.5l-7 -47q-5 -35 -11 -43q-14 -18 -36 -11q-23 7 -19 44
q4 32 11 63.5t12 63.5q4 27 -10 40q-5 5 -17 6t-31 1q-32 -1 -54 -8t-35 -23q-17 -20 -24 -67q-8 -56 -15 -84l-3.5 -14t-3.5 -10q-16 -21 -40 -10q-22 7 -16 40q5 24 9.5 42t6.5 29l4.5 22.5t6.5 27.5q0 6 2.5 16t2.5 16q0 5 -4 12q-7 12 -31 17q-3 0 -11 2q-28 19 -15 35
q10 18 38 21q27 2 37 16q1 1 10 41q1 8 3 16.5t4 17.5q3 24 -8 35q-11 9 -33 8q-15 0 -30 3q-26 7 -23 32q2 16 22 17q21 3 32 3q36 -2 57 21q26 29 18 73q-6 44 29 74zM302 287l2 24l3 40q1 8 3 17t5 20l10 32l-34 1q-16 1 -32.5 2.5t-31.5 1.5q-31 1 -46 -10t-20 -38
q-4 -14 -6.5 -27.5t-5.5 -26.5l-8 -34l35 2q24 2 50 -1t52 -3h24z" />
    <glyph glyph-name="dollar" unicode="$" 
 />
    <glyph glyph-name="percent" unicode="%" 
 />
    <glyph glyph-name="ampersand" unicode="&#x26;" horiz-adv-x="734" 
d="M48 77q-1 0 -2 1q-1 3 -3 5l-12 16l-9 14q-4 7 -10 23q-12 30 -12 65q3 51 25 90t60 65q17 12 20 28q0 10 -14 35q-36 67 -11 135q10 25 34 49q33 30 67 38q7 1 16.5 1.5t22.5 0.5q13 -1 27 -2t28 -1q68 -8 106 -94q5 -14 8 -35q4 -22 -7 -33q-10 -10 -38 2q-15 7 -22 29
q-5 15 -8.5 30.5t-13.5 29.5q-20 24 -62 24h-5q-24 0 -44 -9.5t-34 -25.5t-20 -37.5t-2 -45.5l1 -1v-1q0 -2 2 -10l1 -3l1 -3q28 -59 70 -93q7 -5 17 -11.5t24 -16.5q12 -8 24.5 -16t24.5 -17q23 -19 43 -7q11 6 17 36q1 10 12 21l4 4q10 6 16 4q11 -2 18.5 -12.5t7.5 -29.5
v-7v-8l-1 -3l-1 -10q-1 -16 -10 -33q-10 -22 -7 -36q4 -24 46 -43q9 -5 14.5 -13.5t9 -18.5t5.5 -20.5t4 -18.5q0 -4 1 -7.5t2 -6.5q3 -36 -29 -39q-12 0 -19 6q-11 6 -17 15q-2 0 -2 3q-10 13 -24 13q-11 -2 -27 -21q-9 -14 -32 -28q-2 -2 -14 -9q-18 -9 -42.5 -13.5
t-43.5 -7.5q-63 -12 -109 19q-18 12 -38 20.5t-34 24.5zM204 295q-12 6 -23.5 14.5t-23.5 9.5q-23 1 -58 -34l-1 -1q-69 -82 -10 -159q18 -24 50 -35t62 -13q80 -5 118 41q9 9 17 33q4 19 -0.5 36t-14.5 31t-24.5 25.5t-29.5 20.5q-10 5 -25.5 13t-36.5 18z" />
    <glyph glyph-name="quotesingle" unicode="'" horiz-adv-x="303" 
d="M22 500l-4 -7q-8 -15 -22 -30q-18 -14 -33 -20q-16 -10 -26 9q-7 16 10 25q14 5 23 14q8 6 15 19l1 2l1 1q5 12 7 23q4 15 4 36v46q0 19 17 19q20 0 20 -19v-46q0 -13 -0.5 -23.5t-3.5 -19.5l-6 -20z" />
    <glyph glyph-name="parenleft" unicode="(" horiz-adv-x="431" 
d="M20 434l1 2q2 8 6 17q3 9 6.5 16.5t6.5 14.5q5 11 10.5 23.5t12.5 26.5l2 3q8 16 17 30.5t17 27.5q2 4 6 10.5t10 15.5q13 19 21 24q18 14 35 0q14 -11 4 -35q-8 -21 -20 -41.5t-23 -39.5q-14 -25 -23.5 -41.5t-14.5 -26.5q-13 -28 -17 -45v-1q-13 -51 -18.5 -98.5
t-7.5 -92.5q0 -8 0.5 -18.5t4.5 -23.5q4 -16 7 -29t6 -23q7 -26 13 -46.5t13 -37.5q8 -19 16.5 -36t18.5 -35q11 -21 23.5 -39.5t25.5 -35.5q17 -24 -7 -42q-26 -20 -44 6q-15 20 -28.5 40t-24.5 42q-21 39 -34.5 70.5t-17.5 75.5q-2 26 -13 48.5t-13 48.5q-5 35 0 58
q2 12 4 26.5t4 31.5q1 5 1.5 16.5t0.5 29.5q0 42 13 82v1z" />
    <glyph glyph-name="parenright" unicode=")" horiz-adv-x="454" 
d="M103 412q-26 68 -42 98q-23 43 -57 93q-15 22 7 42q27 18 45 -7q27 -36 45 -68t27 -77q6 -26 22 -49l13 -23q31 -73 18 -151q-4 -23 -1 -50q4 -23 5 -38.5t0 -23.5q-6 -53 -33 -121q-13 -33 -28 -60t-27 -52l-3 -6l-25 -36q-9 -13 -15.5 -20.5t-13.5 -9.5q-27 -8 -38 14
q-5 17 8 32q11 13 24.5 29t22.5 31q2 4 4.5 10.5t5.5 15.5q3 11 6.5 20t6.5 17q10 29 21.5 59.5t25.5 62.5q9 22 8.5 39t-3.5 41q-2 22 -3.5 44.5t-3.5 45.5q-3 25 -8.5 49.5t-13.5 47.5v1z" />
    <glyph glyph-name="asterisk" unicode="*" 
 />
    <glyph glyph-name="plus" unicode="+" 
 />
    <glyph glyph-name="comma" unicode="," horiz-adv-x="316" 
d="M-57 -55q12 9 24 16.5t21 17.5q17 23 16 56q0 10 -2 20.5t-2 20.5q-3 20 0 26q0 3 7 3q30 2 35 -39q1 -3 1 -14q0 -18 -2.5 -35.5t-10.5 -32.5l-1 -2v-3q-1 -5 -6 -11.5t-11 -13.5t-12 -13t-10 -9q-20 -16 -37 -14q-6 0 -10 7q-8 14 0 20z" />
    <glyph glyph-name="hyphen" unicode="-" 
 />
    <glyph glyph-name="period" unicode="." horiz-adv-x="327" 
d="M51 88q4 -7 4 -35q1 -26 -25 -28q-21 0 -27 8q-4 7 -6 16.5t-0.5 18.5t6.5 16.5t15 10.5q6 1 11.5 1.5t10.5 0.5z" />
    <glyph glyph-name="slash" unicode="/" 
 />
    <glyph glyph-name="zero" unicode="0" horiz-adv-x="684" 
d="M163 505q8 18 15.5 34t13.5 30q14 30 51 49q25 13 55.5 14.5t58.5 4.5q25 3 42 -5q4 -2 9 -5.5t12 -8.5l30 -18q37 -22 52 -51q13 -24 18.5 -53t12.5 -54q18 -66 13 -164q-2 -48 -10 -87t-23 -71l-10 -21l-3 -5q-8 -14 -18.5 -26t-21.5 -22q-12 -10 -25 -17.5t-29 -12.5
q-128 -34 -208 58q-39 45 -50 110q-5 32 -7.5 63.5t-3.5 60.5q-1 26 0 52t2 53q2 44 24 92zM204 376q0 -15 -1.5 -28t-3.5 -27q-1 -17 -0.5 -34.5t2.5 -36.5q9 -81 39 -132l1 -3l3 -3q32 -32 67 -40.5t75 3.5h1h1q41 15 58 53q8 20 14.5 40t9.5 40q2 11 3.5 19.5t3.5 15.5
q2 14 3.5 26.5t1.5 23.5q0 22 -2 44t-2 45q0 37 -14 93q-14 54 -48 78q-40 27 -95 18q-53 -9 -82 -48q-35 -46 -35 -126v-1v-20z" />
    <glyph glyph-name="one" unicode="1" horiz-adv-x="684" 
d="M419 427v-52t-2 -56q-5 -55 4 -111q5 -35 4.5 -70.5t-1.5 -70.5q0 -30 -10 -43q-4 -7 -19 -9q-37 -5 -32 35q0 7 1 14.5t2 15.5q1 14 -2 38q-8 63 -6 127t7 128q1 11 1.5 23t-1.5 24l-4 40t-2 41v50l-41 -29q-26 -18 -41 -14q-9 1 -16 16q-4 9 -2 16q0 1 21 22
q22 17 32 36q4 8 10.5 17t15 16.5t18.5 11.5t22 2q25 -4 35 -35q9 -29 9 -50q0 -34 -1.5 -66.5t-1.5 -65.5v-1z" />
    <glyph glyph-name="two" unicode="2" horiz-adv-x="684" 
d="M137 62q10 13 16 20t8 9l28 26l1 1q5 5 12.5 13.5t17.5 20.5q15 18 36 35q17 13 39.5 24.5t36.5 29.5l35 44q6 8 17.5 18t27.5 23q37 30 55 61.5t18 83.5v1l-1 8v1q-11 68 -96 95l-1 1q-60 17 -110 -11q-50 -27 -65 -87v-1v-1q-2 -9 -4 -23.5t-7 -21.5q-4 -9 -17 -12
q-38 -11 -35 28l1 6l6 21q4 13 5 30q7 68 73 96q11 5 19.5 9t13.5 7q13 6 22 13q11 5 25 9t32 4q63 1 115.5 -26t77.5 -88q10 -25 8 -67t-7 -68l-1 -5l1 -3q-3 -10 -15 -29l-17 -26q-30 -34 -63 -65.5t-63 -63.5q-11 -11 -39 -30q-14 -10 -33 -23t-29 -26t-4 -30
q9 -21 41 -18q3 0 6.5 0.5t6.5 0.5q10 0 20 -1.5t22 -1.5q17 -2 31.5 -2.5t26.5 1.5h1l4 1q9 1 23.5 2t34.5 2q40 3 54 -14q8 -11 6 -23q-7 -25 -40 -25q-32 0 -64 2.5t-63 0.5q-15 -1 -26.5 -1.5t-19.5 -0.5q-18 -1 -36 -1.5t-36 -0.5h-43.5t-31.5 1h-15.5t-11.5 1
q-10 0 -13 1q-38 9 -17 45z" />
    <glyph glyph-name="three" unicode="3" horiz-adv-x="684" 
d="M306 643q58 -1 90 -22q16 -10 33.5 -25t36.5 -38q21 -24 28 -51.5t3 -58.5l-1 -8q-2 -13 -11.5 -28.5t-24.5 -35.5l-14 -18l16 -16q51 -51 60 -106.5t-19 -113.5q-16 -32 -42 -52q-4 -4 -10.5 -8.5t-15.5 -10.5q-6 -4 -14.5 -10.5t-19.5 -15.5q-22 -19 -60 -20
q-38 -2 -62 6l-41 12q-17 4 -46 18q-27 14 -32 34q-2 7 3 21q16 29 44 9q15 -10 28 -18.5t25.5 -14.5t27 -8.5t34.5 -1.5q47 3 87 38q15 13 27 29.5t19.5 35t9.5 38.5t-3 40q-12 50 -65 73h-1l-8 3l-1 1q-24 8 -63 8q-17 0 -33.5 -2t-33.5 -2q-22 -4 -31 3q-29 23 7 37
q21 9 58 6q39 -5 56 0q9 2 22 9t30 17l7 4l3 7q11 26 15 51.5t-1 51.5q-11 54 -73 70q-57 15 -113 -16l-1 -1q-6 -3 -18.5 -11.5t-18.5 -8.5q-9 -2 -25 13q-18 21 3 41q30 25 59 35q15 5 32.5 8.5t37.5 2.5z" />
    <glyph glyph-name="four" unicode="4" horiz-adv-x="684" 
d="M492 15q-31 1 -31 38q-1 30 -4 60.5t-4 60.5q-1 31 -38 39q-17 4 -32 6.5t-27 2.5q-23 1 -41 0.5t-29 -1.5l-66 -5q-47 -3 -57 18l-2 4l-1 3v6q0 4 3.5 11.5t8 15t9.5 14.5t8 11q31 46 58.5 82t50.5 64q20 24 34.5 55t31.5 58q9 14 16.5 27t17 24t21.5 19t30 12l5 1
q70 3 67 -56q-1 -8 -2 -20t-2 -28q-1 -12 -0.5 -25.5t2.5 -28.5q4 -42 1 -82t0 -79q3 -35 3 -70q0 -17 -1 -32t-3 -28q-4 -27 0 -56t5 -56v-25.5t-4 -24.5q-5 -9 -16 -13q4 1 1 0.5t-13 -2.5zM381 475q-10 -15 -19.5 -28.5t-18.5 -26.5q-15 -21 -26.5 -39t-20.5 -34
l-8.5 -17t-7 -18.5t-1.5 -19t9 -16.5q6 -6 19 -8q75 -6 120 0q18 2 26 11q5 7 5 36q0 42 0.5 84t0.5 84q0 36 -24 41q-18 5 -29 -11l-8 -11q-9 -12 -12 -18l-3 -6q-1 -1 -1 -2t-1 -1z" />
    <glyph glyph-name="five" unicode="5" horiz-adv-x="684" 
d="M217 42q-14 11 -27.5 27.5t-30.5 39.5q-34 48 -24 83q3 14 18 26q29 25 37 -20q6 -40 13 -57q7 -18 39 -44q61 -50 121 -34q95 25 120 122l2 8l1 9l1 8q6 51 -7 89t-42 65q-40 37 -103 31l-9 -2l-9 -1h-1q-8 -2 -19 -5t-26 -8l-38 -14l-5 -1q-6 -3 -15.5 -6t-19.5 -4.5
t-19 -1t-15 5.5q-12 9 -9 48q1 14 2 27t1 26v1l-6 81q-5 54 16 76q9 10 29 10q6 0 13 -1t15 0h18.5t21.5 2q40 4 81 3.5t83 1.5q23 2 36 2h18q32 0 41 -10q1 -1 1 -6q-1 -36 -40 -45q-7 -1 -18 -1.5t-25 -0.5t-29 1l-30 2q-24 2 -48 3t-48 1q-31 -3 -50 -1h-24l-2 -24
q-2 -16 -1 -39.5t3 -55.5l1 -32l31 8q38 10 70.5 15.5t71.5 -5.5q13 -6 26.5 -9.5t27.5 -9.5q103 -43 115 -175q3 -51 -12 -97q-5 -13 -11.5 -24.5t-14.5 -24.5l-12 -18q-3 -3 -5 -7q-5 -6 -10 -11.5t-9 -10.5q-66 -58 -157 -45q-17 2 -30.5 3t-24.5 2q-20 1 -48 24z" />
    <glyph glyph-name="six" unicode="6" horiz-adv-x="684" 
d="M197 568q14 19 32 32.5t38 23.5q37 19 91 19q36 0 69 -11q15 -5 29.5 -13t28.5 -21q23 -21 1 -43q-23 -23 -45 -1q-15 13 -36 21q-20 7 -47 7q-40 0 -63 -13q-29 -13 -49 -39q-25 -34 -37 -82l-17 -64l56 36q17 11 35 19t37 12q62 13 123 -23q30 -19 55 -46
q27 -30 41 -69t14 -84q0 -14 -1 -28.5t-5 -28.5q-4 -16 -9 -29.5t-10 -24.5q-13 -28 -31 -47q-17 -19 -26 -25l-8 -6l-7 -5q-11 -8 -24 -13t-26 -9q-24 -7 -55 -7q-50 0 -89 19q-41 19 -71 55v1l-1 1q-17 17 -27 41.5t-17 53.5l-1 3q-8 26 -11 59t-3 71q0 85 16 149
q15 66 49 107zM207 192q12 -48 33 -73q23 -28 50 -39q23 -13 61 -13q21 0 38 5q8 2 16 5t16 9l4 3h1q7 5 12.5 10.5l10.5 10.5q11 12 22 33q10 23 14 42q5 25 5 44q0 37 -10 64q-12 27 -29 48q-10 11 -20.5 20t-21.5 16q-71 44 -151 -27q-42 -39 -52 -57q-12 -25 -8 -54
q2 -15 4 -25.5t4 -17.5z" />
    <glyph glyph-name="seven" unicode="7" horiz-adv-x="684" 
d="M538 541q-4 -10 -8 -18t-8 -14q-13 -19 -26.5 -36t-26.5 -34q-37 -46 -51 -91l-35 -109q-9 -24 -15 -48v-1q-17 -72 -24 -138q-4 -37 -34 -37q-33 2 -29 46q2 19 4 35.5t6 31.5q2 11 6.5 27.5l10.5 38.5q5 23 10.5 42t12.5 34q6 17 35 70q16 30 26 62.5t27 62.5
q11 20 17 33.5t9 21.5q10 31 -3 49q-7 8 -17 11t-21.5 4t-22.5 -0.5t-20 -2.5q-74 -9 -124 -9q-25 0 -50 3q-6 0 -21 3t-19 7q-2 3 -2.5 10t1 14.5t4.5 13.5t9 8q10 3 41 0q15 -1 26 -1.5t18 -0.5q21 1 36.5 1.5t26.5 0.5h29.5t20.5 1q19 2 41 3t48 1q5 0 15.5 -0.5
t25.5 -1.5q30 -1 40 -8q4 -5 6 -15t5 -26q2 -14 2 -25t-2 -19z" />
    <glyph glyph-name="eight" unicode="8" horiz-adv-x="684" 
d="M179 327q19 18 21 29q0 12 -14 26q-5 4 -14 18q-51 79 13 158l4 5q15 20 28.5 33.5t23.5 21.5q19 18 74 24q20 2 35 0.5t27 -6.5l57 -21q49 -18 70.5 -56t17.5 -89l-4 -54q-2 -15 -25 -46q-20 -23 -19 -34q0 -14 28 -39q10 -10 17 -17.5t14 -12.5q13 -11 16 -39
q1 -18 -5 -40q-6 -16 -9 -28.5t-4 -20.5q-9 -63 -57 -92q-47 -28 -104 -37q-25 -4 -50.5 -2.5t-49.5 9t-44.5 21.5t-35.5 36q-8 12 -15.5 20t-14.5 16.5t-12 18.5t-8 25q-3 11 -4.5 24.5t0.5 30.5q0 16 5 26q2 13 3.5 24.5t4.5 21.5t8 19.5t14 20.5zM218 286l-2 -4
q-27 -54 -18.5 -99.5t50.5 -80.5q42 -37 112 -30t105 54v1h1q14 24 20 66v1q7 67 -76 90q-16 4 -32 9.5t-32 11.5q-27 11 -50 14t-40 -3l-3 -1l-2 -1q-13 -7 -30 -25zM396 566l-3 1q-81 19 -135 -13l-1 -2l-2 -1q-48 -44 -38 -93q10 -47 70 -72q11 -5 24.5 -9.5t29.5 -8.5
q18 -6 41.5 -8t40.5 12q7 6 13.5 16.5t12.5 22.5t10.5 24t6.5 21v1v1q5 39 -24 77v1q-14 14 -44 29z" />
    <glyph glyph-name="nine" unicode="9" horiz-adv-x="684" 
d="M234 27q-12 6 -27 18t-17 26q-3 11 7 22q6 10 18 11q14 2 38 -12q39 -24 68 -30q30 -5 72 20q28 16 49 43t30 66l2 9v2q0 21 -12 29q-17 10 -42 -3l-6 -3q-68 -23 -116 -6q-38 12 -53 19q-8 4 -19 12.5t-26 21.5q-34 28 -49 63q-18 39 -18 98q0 25 10.5 51t18.5 50
q4 15 15 32q36 54 115 64q18 2 40 9q14 3 39 1q39 -7 72 -37q10 -9 21 -17t22 -17q8 -8 16.5 -18t15.5 -23q19 -38 27 -93q15 -102 -5 -179q-5 -19 -4.5 -38t-3.5 -37l-4 -19q-8 -22 -6 -17l-13 -29q-20 -35 -54 -61.5t-83 -41.5q-69 -20 -138 14zM390 561h-2q-68 33 -121 4
q-62 -33 -71 -124q-7 -74 34 -128q39 -51 123 -42q46 6 97 50l2 1l1 1q28 34 31 53q1 10 0.5 25.5t-4.5 36.5q-9 49 -29 72q-21 24 -60 50z" />
    <glyph glyph-name="colon" unicode=":" horiz-adv-x="325" 
d="M34 89q2 -1 3.5 -2t3.5 -2q6 -8 11 -22q6 -22 1 -28q-3 -3 -13 -3q-38 5 -43 17q-6 8 -1 25q1 6 5 12q7 3 33 3zM36 443q7 0 12 -6l9 -35q2 -11 -2 -16q-9 -9 -33 -5q-6 0 -8 1q-11 1 -13.5 17t-1.5 26q0 10 3 15q9 4 34 3z" />
    <glyph glyph-name="semicolon" unicode=";" 
 />
    <glyph glyph-name="less" unicode="&#x3c;" 
 />
    <glyph glyph-name="equal" unicode="=" 
 />
    <glyph glyph-name="greater" unicode="&#x3e;" 
 />
    <glyph glyph-name="question" unicode="?" horiz-adv-x="653" 
d="M196 76q1 2 1 4t1 4q0 2 1 2q8 5 31 2h5q29 -14 27 -44q-1 -9 -7 -13q-11 -8 -32 -5q-2 0 -3.5 0.5t-2.5 0.5q-8 1 -12 6.5t-6 13t-2.5 15.5t-0.5 14zM211 249q2 30 14 51.5t32 34.5q42 28 67 72q23 41 8 97h-1v1q-33 95 -151 91q-55 -2 -83 -39q-18 -22 -29 -61
q-14 -46 -24 -56q-5 -7 -15 -10q-35 -12 -35 27q0 23 20 69q20 48 35 66q24 29 61.5 37.5t73.5 13.5q10 1 23 0t26.5 -4t26 -6t23.5 -4q40 -6 84 -68q4 -5 9.5 -13.5t12.5 -19.5q13 -25 13 -62q0 -18 -5 -43q-4 -13 -8.5 -25.5t-11.5 -23.5l-4 -5q-18 -24 -38 -41
q-23 -18 -42 -36q-30 -30 -33 -77q-1 -8 -1.5 -22.5t-3.5 -20.5q-3 -5 -13 -9q-43 -13 -38 35q0 4 1 9l2 10q2 7 2.5 15t1.5 17z" />
    <glyph glyph-name="at" unicode="@" horiz-adv-x="1018" 
d="M563 541q-78 48 -165.5 49.5t-169.5 -33.5q-49 -22 -86 -76q-19 -28 -32.5 -52.5t-23.5 -47.5v-1q-56 -145 1 -297l1 -1v-1q48 -95 126 -129q78 -35 179 -46h2h1q87 0 162 35.5t121 110.5q4 6 12.5 19t16.5 17q10 4 34 -8q13 -7 16 -15q1 -8 -2 -17.5t-8 -19t-11 -18
t-10 -12.5q-15 -16 -28.5 -31t-27.5 -26q-64 -50 -171 -79q-17 -5 -30 -6t-26 0t-26 2.5t-29 2.5q-12 1 -24 0l-24 -2t-24 -1.5t-24 1.5q-51 11 -88.5 31.5t-79.5 48.5q-31 20 -54.5 47.5t-39.5 64.5l-3 7q-6 15 -12.5 33.5t-10.5 41.5t-6.5 43t-2.5 37q-3 100 39 190
q9 18 15 38.5t16 39.5q34 70 120 117q27 14 57 20t60 16q17 5 32.5 9.5t30.5 6.5l52 3q34 2 52 -4q113 -33 176 -96q15 -15 26.5 -31t22.5 -33l5 -8l1 -2q9 -18 17 -37.5t13 -39.5q5 -22 8 -42t2 -39q-2 -38 -8 -66.5t-16 -48.5q-20 -40 -67 -96q-14 -17 -50 -46
q-14 -13 -31 -25q-15 -12 -22 -14q-60 -28 -127 7l-5 4q-13 8 -23 7q-1 -1 -5 -3q-3 -2 -7.5 -4t-9.5 -4q-85 -42 -149 7q-32 25 -53 57.5t-27 74.5l-1 7q-6 47 3 103l1 6q5 17 10.5 33t12.5 30l2 3q6 13 16 29.5t24 36.5q28 42 54 54q90 43 167 1l13 -7l14 -10q5 -4 9.5 -8
t9.5 -8l33 -29l9 43q1 1 1 3q7 27 38 25q1 -1 3 -1l17 -6l4 -17q1 -6 0 -12q-9 -41 -39 -108v-1q0 -1 -0.5 -1t-0.5 -1v-1h-1q-4 -10 -9 -20t-9 -19q-8 -18 -15.5 -35t-15.5 -34q-8 -20 -16.5 -39t-15.5 -37q-6 -15 -10.5 -35t7.5 -32q20 -20 66 -2q13 5 22 9.5t15 8.5
q97 63 116 187v1v1q1 5 1.5 12.5t0.5 17.5v1q0 36 -8 68q-8 33 -24 63q-5 2 -9 6q-7 5 -21 22q-15 16 -24 18q-10 0 -20 25q-3 6 -4.5 11t-3.5 8q-2 4 -2 6zM706 436l1 -2h2zM471 339v1q0 61 -41 87t-96 8h-1q-38 -13 -64.5 -35t-43.5 -50.5t-26 -63t-12 -71.5q-2 -27 0 -60
q3 -32 27 -52q11 -9 25 -13t29.5 -4.5t31 1.5t29.5 5h2h1q73 18 101 99q31 85 38 147v1z" />
    <glyph glyph-name="A" unicode="A" horiz-adv-x="999" 
d="M241 618q7 3 17.5 3.5t20.5 -1.5t18.5 -7t12.5 -12q37 -75 66 -151.5t67 -150.5q29 -57 53 -119.5t56 -125.5l2 -4l1 -1q16 -29 28.5 -49.5t20.5 -31.5q71 -95 146 -138q74 -41 166 -36v1h1q30 0 34 -28q1 -31 -29 -33q-126 -8 -224 55q-70 45 -119 112.5t-83 138.5
q-11 23 -22 46.5t-25 44.5q-11 18 -25 30.5t-28 20.5q-15 7 -33.5 11t-40.5 3q-18 0 -43.5 -2.5t-57.5 -4.5l-19 -1q-23 -2 -48.5 -6t-43.5 -20q-7 -7 -13.5 -17t-11.5 -24q-5 -12 -9.5 -26.5t-9.5 -31.5q-4 -9 -12 -35q-26 -30 -42 -24q-8 4 -11 20q-1 14 -0.5 27.5
t5.5 27.5q18 55 42 109t49 108l38 84t37 85q8 21 15.5 41.5t16.5 41.5l16 36q13 27 21 34zM272 485q-19 0 -29 -16q-7 -7 -14 -22q-9 -14 -15.5 -31t-13.5 -36q-13 -41 -18 -68q-7 -48 17 -62q7 -4 13 -4q11 -1 26.5 -1.5t36.5 -0.5q16 0 39.5 1t39.5 6l14 4l4 15
q5 17 -2 41.5t-23 57.5q-16 34 -27.5 58.5t-19.5 40.5q-11 18 -28 17z" />
    <glyph glyph-name="B" unicode="B" horiz-adv-x="739" 
d="M400 431q-3 -7 -5 -14.5t-4 -13.5q-6 -21 2 -32q3 -5 22 -15q9 -6 23 -23q50 -65 32 -173q-11 -62 -59 -104q-35 -32 -52 -35q-9 -2 -24.5 -3t-38.5 -2q-37 -1 -73.5 -2t-72.5 -1q-30 0 -52.5 0.5t-37.5 1.5q-8 0 -24.5 2t-22.5 6l-3 6q-2 3 -3 7.5t-2 8.5q-2 10 -2 26
v53v83q0 21 -1.5 42t-1.5 43q2 46 2.5 91.5t-0.5 93.5q0 27 1.5 55t3.5 55q1 9 0.5 20t1.5 22q4 6 6 7q9 7 26.5 7h29.5q13 -1 26.5 -2t27.5 -1q26 -1 55 -2.5t61 -5.5q64 -6 108 -39q50 -39 54 -124q0 -13 -3 -38zM67 185q0 -14 0.5 -27t1.5 -26q1 -36 13 -44q3 -2 12 -5
t23 -5q10 -2 20.5 -2t21.5 -1q10 0 25.5 -2t36.5 -2q27 -1 55 3t57 12q58 16 74 80v1q3 13 4 29t-0.5 32t-6.5 31t-14 27l-1 1q-15 15 -34 23.5t-40 12t-42.5 4t-40.5 -0.5q-14 -2 -28 -3t-27 -2q-14 -2 -25 -2h-21q-36 1 -47 -10q-17 -14 -17 -47v-77zM329 494v1
q-9 27 -22.5 43.5t-31.5 26t-40 12.5t-49 3q-31 0 -62 -3q-40 -4 -52 -26q-8 -15 -4.5 -33.5t4.5 -34.5q1 -9 0.5 -21t-2.5 -27q-3 -29 8 -43q6 -9 16 -13.5t22 -6.5t24 -2h21q19 0 40 1t46 4q51 8 74 41q10 13 11.5 29t-0.5 35l-1 9z" />
    <glyph glyph-name="C" unicode="C" horiz-adv-x="691" 
d="M406 108q47 27 55 -18q4 -19 -20 -37q-11 -8 -20.5 -13.5t-17.5 -8.5q-23 -10 -41.5 -14.5t-32.5 -6.5q-26 -2 -55 -2t-61 5q-65 10 -105 45q-37 31 -61 75t-39 89l-2 6q-9 29 -6.5 64.5t1.5 66.5q0 24 1 42.5t5 31.5q7 25 32 68q27 48 61 83t92 47q15 2 52 12
q11 3 24.5 5t30.5 1q13 0 30.5 -3t40.5 -8q16 -5 49 -21q31 -13 37 -35q2 -8 -2 -17q-9 -15 -21 -18q-7 -2 -17.5 0t-25.5 10q-20 10 -37 17t-34.5 10.5t-36 2.5t-40.5 -7q-52 -16 -73 -27q-22 -12 -52 -57q-24 -35 -36.5 -73.5t-14.5 -79t6.5 -80.5t26.5 -77v-1h1
q43 -80 123 -100q58 -14 90 -6q9 1 17 3t17 4q34 7 59 22z" />
    <glyph glyph-name="D" unicode="D" horiz-adv-x="771" 
d="M424 576l3 -3q11 -13 20.5 -29t17.5 -36q6 -14 13.5 -26.5t12.5 -26.5q8 -22 12 -40t5 -34t0.5 -34.5t-3.5 -41.5q-2 -20 -2 -39.5t-4 -39.5q-5 -26 -15.5 -51.5t-24.5 -48.5q-25 -40 -70 -73l-8 -4q-11 -8 -19 -9q-11 -5 -21 -8.5t-19 -5.5q-52 -12 -107 -10.5t-107 0.5
q-19 0 -46 -0.5t-43 9.5q-14 7 -18 27q-1 4 -1 17q0 48 1 95.5t3 95.5q2 24 -1 49.5t-3 50.5v104v84q0 60 15 78q16 17 49 16q17 -1 31.5 -0.5t25.5 0.5q38 1 77.5 -1t81.5 -4q82 -5 144 -60v-1zM293 573h-1q-14 2 -34.5 2t-47.5 -2q-49 -3 -76 1q-44 7 -54 0
q-15 -11 -15 -43t1 -63t-1 -61q-5 -75 -3.5 -148.5t1.5 -146.5q0 -17 12 -27q12 -11 47 -6q1 0 2.5 0.5t2.5 0.5q20 1 37.5 0.5t33.5 -1.5q60 -4 115 6q56 12 87 73q14 27 24.5 52t16.5 50.5t7.5 52.5t-1.5 59q-6 62 -40 123q-17 29 -45.5 48t-67.5 29z" />
    <glyph glyph-name="E" unicode="E" horiz-adv-x="688" 
d="M0 75q-1 61 -0.5 122t0.5 122v35q0 27 -1.5 54.5t0.5 54.5q1 30 1 59.5t1 59.5q0 36 17 50q13 10 46 10q17 1 29.5 1.5t21.5 0.5q39 1 78 -0.5t78 -0.5q21 1 42 1.5t41 -1.5l51 -3q9 -1 15.5 -1t11.5 -2q21 -11 20 -31q-1 -9 -7 -14.5t-13.5 -8.5t-15.5 -4t-14 -1
q-61 0 -121 3q-6 1 -15 1h-20h-58q-23 0 -41 -0.5t-30 -0.5q-17 -1 -28 -4.5t-16 -11.5q-8 -12 -6 -30v-14t-1 -11q-2 -12 -3 -25.5t0 -29.5q0 -28 22 -47q18 -16 65 -13q21 1 41.5 3.5t41.5 1.5q9 0 23.5 -0.5t34.5 0.5q40 1 54 -14q5 -7 4 -23q-3 -18 -28 -22
q-23 -4 -37 -4q-18 -1 -35.5 -0.5t-35.5 -0.5q-22 -2 -45 -1t-48 3q-3 0 -7 0.5t-7 0.5h-1q-11 2 -22 -5q-18 -11 -20 -38q-2 -26 0 -45q1 -11 1.5 -20t-0.5 -16q-2 -15 -3.5 -29.5t-3.5 -29.5q-3 -38 10 -57q17 -23 59 -23q33 0 67 1.5t68 3.5q31 1 63.5 -2t64.5 -3
q12 0 32 0.5t31 -5.5q10 -6 11 -18q11 -36 -31 -38q-66 -3 -129.5 -2t-127.5 0q-4 0 -7.5 -0.5t-6.5 -0.5h-39.5t-27.5 1q-7 0 -16.5 0.5t-21.5 1.5q-10 1 -16.5 2t-9.5 2q-30 9 -30 56z" />
    <glyph glyph-name="F" unicode="F" horiz-adv-x="678" 
d="M451 621q14 -40 -32 -43q-60 -4 -121 -1.5t-121 -1.5q-24 -2 -56 3t-48 -13q-13 -13 -11 -33q1 -1 1 -7q0 -4 -0.5 -17t-1.5 -35q-2 -38 12 -54q15 -18 41 -18q16 -1 38.5 -1.5t52.5 -2.5q4 -1 16 0t32 2q11 1 29.5 2t28.5 -5q11 -8 11 -26q1 -13 -5 -19q-9 -10 -37 -10
q-14 0 -27.5 1t-26.5 2q-31 1 -62 0q-14 -2 -28 -2.5t-27 -0.5q-32 0 -42 -12q-7 -10 -7 -44q0 -45 1.5 -88.5t3.5 -86.5q1 -8 0.5 -19.5t-1.5 -26.5q-2 -30 -13 -40q-9 -9 -18.5 -9.5t-17 4t-12.5 13.5t-6 20q-2 14 -1.5 32t2.5 39q1 16 1.5 33t0.5 34q1 20 1.5 35.5
t2.5 26.5q2 26 -1 53t-3 54v111q0 31 -1.5 62t-1.5 63v3q6 26 29 37q15 7 46 7q15 0 31 -0.5t33 -0.5q66 0 131 1.5t131 -0.5q10 -1 19 -1.5t18 -2.5q9 -5 16 -17z" />
    <glyph glyph-name="G" unicode="G" horiz-adv-x="826" 
d="M526 79q-74 -66 -178 -71q-101 -4 -191 32l-1 1h-2q-15 5 -43 28q-27 24 -36 36q-15 20 -26.5 45t-23.5 48q-22 43 -24 73q-1 15 -0.5 34.5t2.5 44.5q9 110 69 203q5 8 19 19.5t36 23.5q46 25 78 35q21 7 47 10q60 7 123 -0.5t117 -38.5q8 -5 17.5 -12t22.5 -17
q25 -19 28 -38q1 -9 -6 -18q-11 -14 -21 -14q-12 0 -26 9.5t-22 15.5q-17 11 -27.5 18t-12.5 9q-51 27 -124 27q-17 0 -37 -1.5t-43 -5.5h-2l-2 -1q-127 -36 -165 -173q-13 -49 -5.5 -93t19.5 -90q19 -70 63 -101t111 -43h1q18 -3 33.5 -3t30.5 2.5t30.5 5.5t33.5 5
q71 9 101 51v1q22 34 18 95q-1 32 -23 52q-27 25 -75 23l-80 -3q-13 -1 -23 -1.5t-18 -0.5q-38 5 -33 34q3 20 28 26q45 4 88.5 1t89.5 0l43 3q29 2 43 -10q16 -12 17 -42q3 -30 3 -46q0 -27 1 -56.5t-4 -55.5q-7 -38 -39 -76z" />
    <glyph glyph-name="H" unicode="H" horiz-adv-x="766" 
d="M222 409q36 -1 72 -2.5t72 -6.5q28 -4 43 12q11 12 10.5 30t-0.5 34q1 25 1 43.5v30.5q0 6 0.5 16t1 20.5t2 20.5t4.5 16q9 21 33 19q26 -3 26 -45q-1 -25 -3 -50t0 -49v-1q0 -40 2 -80t4 -79q2 -24 0 -48.5t-2 -48.5q-1 -42 -1 -83.5v-83.5q0 -37 -7 -48q-4 -7 -16 -10
q-36 -9 -41 32q-5 51 -3.5 103t-0.5 104q-1 19 -4.5 42t-19.5 37q-15 12 -52 12q-18 0 -35.5 -1t-35.5 0h-57q-18 -1 -35.5 0.5t-35.5 2.5q-38 3 -57 -10q-23 -20 -23 -67q0 -31 1 -62.5t1 -61.5q0 -25 -1 -43.5t-1 -31.5q-1 -14 -2 -24t-3 -17q-11 -21 -35 -15
q-24 4 -24 37v65t1 65q1 31 0 62.5t-1 63.5q0 51 1 102l2 102q0 8 -1 22t-2 35q-2 43 3 54q13 19 30 18q30 -1 33 -47q1 -12 1.5 -21t0.5 -16v-14t-2 -21l-4 -30t-2 -29q-2 -32 12 -44q15 -11 40 -7q14 1 24 1h17q17 -1 34 -3t35 -2z" />
    <glyph glyph-name="I" unicode="I" horiz-adv-x="343" 
d="M33 15q-32 5 -32 38q-1 54 -1 106v106q0 30 3 60q2 22 2 41t-1 35q-1 10 -2 24t-2 33q0 10 0.5 24t1.5 33q1 14 1.5 24.5t0.5 18.5v22v1v8q-3 25 1 35q3 7 13 14q39 20 48 -25q8 -34 9.5 -66.5t-1.5 -64.5v-1q-3 -31 -1.5 -62t-1.5 -62q-3 -27 -5 -47t-3 -34
q-2 -20 -2 -41.5t1 -45.5q1 -5 1 -11.5v-15.5v-32t1 -31q0 -11 0.5 -20.5t-0.5 -19.5q0 -20 -1 -22q-4 -19 -30 -22z" />
    <glyph glyph-name="J" unicode="J" horiz-adv-x="599" 
d="M325 631q1 -5 1.5 -13t0.5 -19v-52q0 -28 -1 -49.5t-1 -35.5q-2 -47 3 -93q3 -33 0.5 -64.5t-2.5 -64.5q-1 -37 -5.5 -67t-13.5 -66l-1 -4v-2q-7 -17 -29 -42q-124 -106 -248 -16q-29 23 -28 45q1 8 18 19q8 5 16 3q7 -2 16 -6.5t17 -7.5q27 -16 57 -19q73 -6 106 28
q22 23 28 56.5t6 63.5q1 31 1.5 62t2.5 62q1 17 0 40t-5 54l-11 85q-3 16 -1 57q3 39 21 53q40 27 52 -7z" />
    <glyph glyph-name="K" unicode="K" horiz-adv-x="664" 
d="M0 630q51 42 57 -25q2 -14 2 -29t-1 -32q-1 -18 -1.5 -35t-0.5 -34q2 -50 26 -59q23 -9 49 20q18 20 38 41.5t44 41.5q20 17 39 35l38 36q4 4 12.5 10.5t21.5 16.5q24 19 36 22q22 4 33 -11q9 -17 -7 -34q-14 -19 -25 -31.5t-18 -19.5q-14 -14 -51 -42q-16 -12 -33 -26
t-31 -28q-25 -28 -28 -52q-1 -11 2.5 -25.5t13.5 -32.5q9 -18 19 -35.5t19 -35.5l9 -18t6 -13v-1q23 -44 57 -84.5t76 -81.5q22 -21 0 -43q-22 -23 -44 -1q-77 73 -114 132q-24 36 -43 75.5t-37 78.5q-16 33 -37 34q-18 0 -45 -32q-11 -14 -16 -29t-7 -31q-2 -24 3 -47.5
t2 -46.5q0 -6 -1 -8q-4 -28 -5 -53.5t0 -49.5q0 -29 -33 -32q-29 1 -29 31q0 48 -1.5 95.5t-3.5 96.5q-2 35 3 71t5 72q0 13 0.5 27t0.5 28q1 52 0 72l-11 62q-6 37 11 60z" />
    <glyph glyph-name="L" unicode="L" horiz-adv-x="617" 
d="M390 67q12 -8 12 -22q1 -33 -39 -33q-72 0 -144 2t-144 -3q-57 -3 -69 31q-6 15 -6 47q1 17 1.5 29.5t0.5 21.5q1 22 2.5 45.5t0.5 46.5q-2 48 -4 93.5t-1 93.5q1 23 2 45.5t1 46.5q1 29 0.5 53.5t-2.5 44.5q-2 27 25 32q39 8 42 -46q2 -23 3 -44.5t3 -41.5v-26l-4 -38
q-2 -16 -3.5 -32t-2.5 -31q-2 -38 -2 -66.5t1 -47.5q2 -24 2.5 -50t-1.5 -55q-2 -44 12 -58q11 -13 47 -16q18 -2 35.5 -3t35.5 -3q27 -3 55 -0.5t56 -1.5q18 -2 43.5 -3.5t41.5 -10.5z" />
    <glyph glyph-name="M" unicode="M" horiz-adv-x="864" 
d="M522 620q10 3 33 -3q23 -5 28 -14q0 -1 1 -2q3 -29 3 -86v-75q1 -30 2 -58t-1 -57t-4 -57t0 -56q1 -24 3 -47.5t0 -47.5l-3 -46q-2 -34 -7 -42q-11 -15 -25 -15q-33 2 -34 47q-3 64 0.5 128t-1.5 130l-3 44q-2 32 -27 35q-10 1 -17 -3t-12 -11t-8 -15.5t-6 -15.5
q-8 -20 -14.5 -36t-11.5 -28q-9 -21 -22 -42.5t-24 -41.5q-11 -22 -21.5 -41.5t-20.5 -39.5q-7 -12 -37 -11q-21 0 -31 12q-8 9 -16.5 25.5t-19.5 41.5q-8 17 -14.5 29.5t-11.5 20.5q-5 7 -12 22t-18 38l-27 57q-5 10 -8.5 15t-4.5 7q-15 19 -34 15q-25 -4 -25 -45
q0 -64 1 -120.5t3 -107.5v-19.5t-1 -30.5q-2 -36 -8 -45q-10 -15 -30 -13q-27 1 -27 39q0 45 -1.5 90t-2.5 93q-1 23 -0.5 41.5t2.5 31.5q3 25 3.5 44t-0.5 32q-1 16 -3 34.5t-5 39.5q-3 29 1 70q4 43 12 70q3 12 6 17q28 30 55 -6q11 -15 21 -31t21 -33q16 -23 28 -50.5
t24 -53.5t21.5 -45.5t17.5 -31.5l4 -6q11 -17 19 -34.5t16 -34.5q22 -47 45 -48q23 0 33 20q5 11 9.5 21t7.5 19q7 17 16.5 35.5t20.5 37.5q21 36 43 71t40 74q5 12 13 26t17 28l19 30q1 2 3.5 6t6.5 9z" />
    <glyph glyph-name="N" unicode="N" horiz-adv-x="767" 
d="M57 36q-4 -18 -31 -21q-28 1 -28 31q0 78 -3.5 157.5t4.5 157.5v1q0 23 0.5 45t-1.5 43l-8 76q-3 32 10 69q10 26 27 31q14 3 29 -14q14 -15 21 -26q13 -19 26.5 -34t26.5 -28q11 -13 22.5 -22.5t22.5 -21.5q10 -10 22 -25.5t26 -36.5l44 -68q5 -7 10.5 -16t13.5 -21
l1 -1q21 -28 44 -53q11 -12 22 -22.5t23 -21.5q11 -13 26 -8q23 6 22 46q0 10 -1.5 21t-1.5 22q-1 8 -2 15.5t-1 16.5q0 4 -0.5 9t-0.5 11q4 88 -6 164q-1 5 -1 16.5t2 29.5q1 22 6 47q3 36 32 36q32 0 32 -38q1 -31 2.5 -62.5t1.5 -62.5q1 -46 -2 -92t-1 -92q2 -31 1.5 -61
t-1.5 -60q0 -17 0.5 -33.5t0.5 -31.5v-40q-1 -6 -1.5 -12t-0.5 -11q-1 -1 -1 -2t-1 -1q-11 -15 -34 -15q-27 -2 -41 17q-15 19 -27.5 41t-27.5 43q-18 24 -39.5 51.5t-47.5 58.5q-10 11 -28 40l-35 56q-13 20 -26 40.5t-27 39.5q-6 7 -13 15.5t-15 14.5t-18 9t-20 0
q-27 -8 -25 -55q1 -34 1.5 -64t2.5 -56q2 -21 -0.5 -42t-2.5 -41v-78q0 -25 -1.5 -45t-3.5 -36z" />
    <glyph glyph-name="O" unicode="O" horiz-adv-x="847" 
d="M206 17q-20 6 -40.5 15.5t-40 22t-36.5 28t-29 33.5q-16 25 -23 51.5t-20 54.5q-10 22 -11 48q-1 12 -2.5 24.5t-1.5 24.5q-1 12 -1.5 21t-0.5 15q0 19 2.5 39.5t7.5 42.5q1 7 6 18q10 30 25.5 56.5t35.5 49.5q39 44 109 78q32 14 67 13q22 -2 44 -6q18 -3 31.5 -4.5
t23.5 -3.5q77 -9 136 -68q13 -13 24.5 -28.5t22.5 -33.5l5 -8q1 -3 2 -5l2 -4q17 -40 31 -100q13 -56 4 -103q-6 -27 -15 -52t-16 -50q-39 -134 -176 -169l-8 -2q-8 -2 -20 -4t-28 -4q-26 -3 -53.5 -1t-56.5 11zM307 589q-54 0 -97.5 -13t-78.5 -48q-48 -48 -61 -106.5
t1 -130.5l9 -49q2 -14 4 -22.5t3 -10.5q6 -22 24 -42t33 -35q8 -9 16 -17.5t17 -15.5q15 -13 50 -24h1q19 -5 42.5 -3.5t52.5 8.5q14 4 28.5 5.5t29.5 5.5q37 9 62 40h1v1q16 19 27 48q10 29 15 37q50 98 15 212l-1 1q-4 11 -8 21t-11 20q-39 59 -93 85q-2 1 -9 5t-20 12
q-18 11 -51 16h-1z" />
    <glyph glyph-name="P" unicode="P" horiz-adv-x="693" 
d="M59 265q1 -25 0 -50t0 -49q1 -80 0 -120q0 -18 -15 -27q-16 -8 -28 -1q-12 4 -14 23q-2 32 -3 64t-1 65q1 40 1.5 80t0.5 82q0 24 0.5 48.5t-0.5 48.5q0 28 -0.5 58.5t1.5 64.5q1 6 1 15v22q0 21 1 24q1 9 17 20q13 8 53 10q20 1 34.5 1.5t24.5 0.5q27 1 55.5 -1t57.5 -3
q16 -1 35.5 -2.5t42.5 -5.5q46 -6 72 -27h1q34 -29 51.5 -63t15.5 -76q-1 -29 -14 -50.5t-36 -37.5q-43 -30 -94 -41q4 2 -14 -3q-30 -4 -60.5 -2.5t-60.5 -2.5q-10 -1 -23.5 -1.5t-32.5 0.5q-35 2 -51 -10q-20 -15 -18 -54zM225 392q39 0 76 4t72 30q37 28 30 66
q-8 38 -42 62q-8 6 -18.5 10.5t-21.5 8.5q-51 11 -95 5q-22 -3 -45 -4.5t-47 -0.5q-12 0 -21 0.5t-14 1.5q-6 2 -11 0q-25 -6 -27 -44q-1 -8 -1.5 -21t-0.5 -30q1 -5 1 -12.5v-17.5q2 -35 22 -51q19 -17 66 -15q17 1 33.5 3t34.5 5h9z" />
    <glyph glyph-name="Q" unicode="Q" horiz-adv-x="843" 
d="M353 18q-50 -12 -119 -3q-23 3 -42.5 14t-41.5 19q-39 14 -67.5 39.5t-47.5 63.5q-18 38 -26.5 77t-8.5 78q-1 7 -0.5 16.5t0.5 22.5q1 18 2.5 37t4.5 38q4 36 18 66q13 29 33 55.5t50 49.5q83 64 195 67q23 1 49.5 -11t46.5 -24q5 -4 38 -18q21 -11 36 -24
q19 -18 36 -48q1 -2 5 -9t12 -20l1 -1l1 -1q9 -9 16 -26.5t14 -42.5q15 -50 18 -74q11 -122 -52 -214q-12 -17 -24.5 -34t-21.5 -34l-8 -16l12 -13q6 -6 19.5 -13t36.5 -12q14 -5 20 -9q4 -4 4 -14t-6.5 -16t-15 -8t-18.5 -1.5t-18 2.5q-18 5 -37 15.5t-39 25.5
q-17 14 -34 12q-3 0 -11 -2t-22 -7zM299 215q70 7 83 -27q13 -32 46 -34q23 0 40 32q8 15 14.5 32.5t13.5 35.5q40 107 -19 216q-7 12 -11 19t-5 9q-84 132 -240 80h-1l-1 -1q-10 -4 -20.5 -10.5t-23.5 -14.5q-21 -15 -44 -31t-38 -36q-27 -38 -31 -109q-1 -12 -1 -31.5
t2 -46.5q3 -53 12 -74v-1l1 -1q82 -169 258 -142q25 4 29 24q1 16 -15 31q-3 1 -12 8q-17 13 -39 18q-20 3 -21 4q-7 3 -11 18q-4 10 2 18q8 11 32 14z" />
    <glyph glyph-name="R" unicode="R" horiz-adv-x="933" 
d="M405 603q26 -20 41 -47.5t21 -60.5q13 -66 -44 -111q-16 -13 -39.5 -25t-54.5 -25q-18 -10 -23 -22q-4 -9 12 -39q9 -17 19 -32t18 -30q14 -24 25 -44t22 -37q10 -17 24 -36t31 -42q26 -34 52.5 -64.5t55.5 -59.5q37 -35 94 -79q57 -42 110 -53q6 -1 15.5 -1.5t22.5 -0.5
q30 0 43 -5q8 -1 16 -14q22 -35 -25 -41q-87 -9 -172 40q-43 25 -79 51.5t-65 55.5l-5 5q-18 18 -33.5 34.5t-28.5 32.5q-34 42 -54 73q-16 24 -34.5 46t-33.5 46q-23 37 -46.5 76.5t-49.5 84.5q-16 27 -55 46q-38 17 -69 6q-50 -20 -50 -87q0 -34 -1.5 -67.5t-1.5 -66.5
v-64q0 -31 -31 -31q-32 0 -32 31q0 53 1 100.5t3 90.5q2 37 -1 74t-3 74t1.5 74t3.5 75l2 57q2 25 5 32q4 8 16.5 12.5t32.5 6.5q19 2 33.5 3t25.5 1q12 1 26.5 0.5t31.5 -2.5q10 -1 17 -1.5t12 -0.5q28 -2 56 -1.5t56 -4.5q29 -5 50.5 -13.5t35.5 -19.5zM120 386
q31 -1 59 -1t54 2q18 2 40.5 5.5t50.5 8.5q56 11 73 52q9 22 -1 50q-25 64 -97 74q-42 6 -85.5 4.5t-85.5 -2.5q-22 -1 -34 -4t-16 -7q-9 -9 -7 -46q2 -24 -2 -49t-5 -49q-2 -19 11 -30q8 -7 45 -8z" />
    <glyph glyph-name="S" unicode="S" horiz-adv-x="705" 
d="M436 105q-17 -21 -32.5 -37t-32.5 -27.5t-37.5 -19t-46.5 -10.5q-13 -2 -27 -2.5t-30 1.5q-22 2 -43 2t-43 5q-48 11 -80 33t-49 57q-22 48 25 50q8 0 18.5 -11.5t16.5 -17.5q21 -21 24 -23h1v-1q49 -34 130 -34h1h1q34 0 87 14q52 13 69 53q9 24 0 52v1q-25 53 -97 71
l-123 32q-26 6 -63 25q-19 10 -33 18t-23 16q-41 30 -48 60q-1 5 -1 14v22q0 14 2 27.5t4 28.5q6 46 39 82q15 15 36.5 25.5t41.5 19.5q28 13 58.5 13.5t60.5 -0.5q98 -3 153 -69q25 -31 19 -51l-7 -6q-16 -8 -38 11q-6 4 -11 9l-10 10t-13 10.5t-18 10.5l-2 2h-3
q-37 11 -75.5 13t-79.5 -7q-49 -11 -75 -40.5t-26 -78.5v-2l1 -2q4 -62 96 -88l29 -8l74 -25q17 -6 34 -13.5t36 -15.5q28 -13 52 -25t44 -25q14 -9 21.5 -22t10 -28t2 -31t-3.5 -29q-2 -11 -6.5 -21t-9.5 -18z" />
    <glyph glyph-name="T" unicode="T" horiz-adv-x="732" 
d="M481 593q-14 -16 -46 -14l-50 3q-15 1 -29 2t-29 1q-30 1 -44 -13q-11 -13 -11 -43q0 -14 1.5 -27.5t1.5 -27.5q1 -33 1.5 -57.5t0.5 -41.5q0 -51 -6 -102q-3 -24 0 -48t4 -47q1 -26 1.5 -45t0.5 -32v-13.5t-1 -21.5q-2 -27 -4 -33q-13 -22 -34 -16q-26 5 -26 38
q-1 30 1.5 60.5t4.5 60.5q3 35 -0.5 71t-3.5 72q0 33 2.5 66.5t3.5 66.5q0 65 -21 92q-11 14 -26.5 21.5t-34.5 9.5t-35.5 3.5t-32.5 1.5h-30.5t-28.5 6q-8 4 -10 19q-2 11 3 19q7 12 35 15q3 1 11 1q42 1 81.5 -3.5t81.5 -1.5q17 1 33.5 3t34.5 2h66.5t66.5 1q17 0 29.5 -1
t21.5 -5q31 -21 16 -42z" />
    <glyph glyph-name="U" unicode="U" horiz-adv-x="761" 
d="M460 641q30 1 30 -30q0 -42 -0.5 -82t-5.5 -82q-5 -39 -0.5 -77t4.5 -76v-7l-4 -68q-2 -22 -5 -39t-5 -28l-2 -4l-2 -7v-1q-3 -12 -11 -24.5t-17.5 -24t-20.5 -21.5t-20 -18q-17 -15 -37 -24t-42 -13t-44.5 -5.5t-43.5 -1.5q-37 0 -72 8.5t-68 28.5q-2 2 -2 3q-3 1 -5 3
l-4 4q-3 2 -5 3.5t-4 4.5q-50 53 -64 132q-6 39 -8 76.5t0 73.5q1 9 2 17.5t2 17.5q1 12 0.5 23t-1.5 21q-6 79 -3 187q1 21 26 30q20 6 34 -4q8 -8 8 -18q1 -14 0.5 -36t-1.5 -51q0 -25 -2 -50t-2 -49q0 -30 -2 -58.5t-2 -57.5q0 -56 18 -126q2 -9 4.5 -16.5t4.5 -15.5
q15 -47 46 -65q23 -14 86 -18q8 -1 16 -2.5t17 -1.5h1h1q48 0 84 17t61 59q20 34 20 104v22.5t1 15.5q10 89 -2 186q-2 13 3 48q2 14 3 25t1 19q0 43 6 58q8 15 28 15z" />
    <glyph glyph-name="V" unicode="V" horiz-adv-x="810" 
d="M112 521q8 -17 12.5 -35l9 -36t10 -36t14.5 -34q18 -32 31.5 -63.5t28.5 -63.5l21 -44q16 -26 39 -28q30 -3 53 48q13 27 24 58t21 61q1 3 5.5 12.5t14.5 26.5q6 11 11.5 20.5t10.5 17.5q23 46 46 95t41 100q3 14 11 17t33 -7q19 -11 20 -16q2 -10 -5 -24.5t-10 -22.5
l-10 -18q-9 -16 -16 -31.5t-15 -30.5q-14 -27 -24.5 -55t-22.5 -55q-27 -60 -54.5 -119.5t-59.5 -116.5q-13 -23 -23 -55q-10 -34 -29 -48q-8 -5 -18 -7q-6 -2 -17 3q-8 3 -13.5 10t-10 16t-8.5 18t-7 16q-22 33 -40 74.5t-39 89.5q-15 32 -27.5 65t-29.5 65q-7 10 -21 55
l-5 17.5t-9 24.5q-8 21 -18.5 41t-20.5 41q-16 37 -16 47q3 19 20 25q29 12 44 -23q11 -25 24 -48t24 -47z" />
    <glyph glyph-name="W" unicode="W" horiz-adv-x="913" 
d="M306 331q13 22 26 22q12 -1 21 -22q11 -24 22.5 -45.5t22.5 -46.5l13 -31q12 -27 32 -24q1 0 7 2q17 5 20 32q2 8 3 16.5t3 17.5q3 16 5.5 30t6.5 25q3 9 9 22t14 30q22 48 37.5 98t30.5 101l11 38q7 27 16 36q16 17 40 4q19 -13 10 -42q-15 -47 -36 -87q-5 -12 -9 -26
q-2 -8 -4.5 -16.5t-5.5 -18.5q-5 -17 -8 -31t-6 -25q-5 -20 -8 -34t-5 -21q-14 -48 -29 -93t-33 -90q-7 -16 -10.5 -34t-7.5 -34q-9 -44 -25 -58q-11 -8 -24 -8q-12 0 -21.5 6t-16.5 16t-11.5 21t-7.5 22q-6 15 -10 31.5t-10 33.5q-14 39 -41 39q-25 0 -38 -25
q-7 -13 -12 -23.5t-8 -19.5q-5 -12 -8.5 -24.5t-6.5 -24.5v-1q-9 -35 -18 -44q-8 -6 -30 -6q-25 1 -34 44q-2 13 -5.5 22.5t-5.5 17.5q-23 51 -40 103.5t-32 106.5q-10 33 -18.5 66t-21.5 66q-8 22 -16 43t-14 42l-8.5 25.5t-7.5 27.5q-4 15 -4 29q2 28 28 29q24 1 32 -28
q7 -25 13 -48.5t16 -47.5q13 -34 27.5 -65.5t23.5 -66.5q5 -16 10 -30.5t11 -29.5q10 -24 13 -44q3 -15 6 -30.5t6 -29.5q9 -37 31 -38q22 -4 42 34q7 14 14.5 28t15.5 29q7 13 15 44q0 3 1 6.5t2 6.5z" />
    <glyph glyph-name="X" unicode="X" horiz-adv-x="686" 
d="M280 481q14 26 33 50t36 50q8 12 18 27.5t22 23.5q10 7 26 4q36 -8 12 -47q-15 -24 -33 -46.5t-33 -47.5q-11 -17 -26.5 -40.5t-35.5 -52.5q-17 -23 -37 -56q-20 -35 -8 -61q5 -13 19.5 -30t23.5 -28l33 -41q19 -29 36 -59.5t37 -59.5l4 -6q18 -27 -11 -41
q-26 -17 -43 10q-20 31 -39 62.5t-34 64.5v1q-9 16 -16.5 27t-12.5 18q-19 20 -41 19q-27 -5 -46 -48q-12 -25 -20.5 -42t-13.5 -25q-12 -20 -23.5 -39t-23.5 -38q-16 -27 -44 -10q-27 15 -10 41q17 28 36 54.5t39 53.5l1 2l1 1q12 21 21 37t14 27q4 9 10 21t10 24.5t5.5 25
t-2.5 23.5v1q-25 58 -60.5 111t-70.5 106l-20 30q-8 11 -10.5 19.5t-2.5 14.5q2 21 22 27q23 6 34 -15l17 -34q6 -12 13 -22.5t14 -19.5q23 -30 53 -89q9 -17 19.5 -35.5t31.5 -20.5q21 -5 44 23q7 9 14 23t18 32z" />
    <glyph glyph-name="Y" unicode="Y" horiz-adv-x="675" 
d="M408 636q42 1 19 -44q-5 -10 -14 -23t-22 -30q-29 -38 -45 -70q-15 -30 -34.5 -60t-42.5 -61v-1q-12 -18 -17.5 -34.5t-7.5 -31.5q-2 -18 0.5 -35t2.5 -34q0 -24 -1.5 -46.5t1.5 -46.5q1 -9 2 -21t2 -28q2 -32 -10 -46q-7 -7 -22 -9q-32 -3 -35 47q-2 45 2 92t7 93
q3 39 -13 63q-8 11 -15.5 25t-17.5 30q-11 17 -21.5 34.5t-21.5 35.5q-12 19 -20 33.5t-13 24.5q-8 14 -13 24t-9 15t-10 13t-14 18q-25 32 -25 47q-2 9 4 19q28 33 53 -4q21 -30 37 -63t34 -64q14 -23 24.5 -38.5t20.5 -24.5q24 -27 51 -21q24 5 46 37q9 12 17 25t17 26
q8 10 14 22.5t11.5 25.5t11.5 26t14 25q22 31 53 35z" />
    <glyph glyph-name="Z" unicode="Z" horiz-adv-x="720" 
d="M0 57q1 16 8 30t17 26.5t21.5 23.5t22.5 22q21 21 36 40q4 5 7.5 12t8.5 15q16 33 27 50t34 46q23 28 44 58t43 60q32 43 45 70q17 36 2 58q-13 19 -42 19h-25.5t-21.5 -1q-33 -3 -65.5 -6t-65.5 -4q-11 0 -23 1t-24 5q-25 8 -26 35q-2 10 15 15l24 6q13 3 25.5 3.5
t25.5 -0.5q19 -1 33 -1.5t23 -0.5q9 1 22.5 1.5t31.5 3.5q12 2 25 2.5t27 -1.5q27 -2 55.5 -3t56.5 -1q41 0 52 -18q7 -15 -3 -43q-5 -14 -9.5 -24t-8.5 -17q-19 -37 -47.5 -68.5t-55.5 -61.5q-20 -22 -34 -50.5t-31 -51.5q-32 -46 -64.5 -88.5t-62.5 -87.5q-16 -22 -5 -41
q5 -8 12.5 -11t16 -3.5t17.5 0.5t17 1h8q64 0 128 -0.5t128 -0.5q32 0 32 -30q0 -31 -32 -31q-100 0 -197 -1t-196 1q-50 0 -52 42z" />
    <glyph glyph-name="bracketleft" unicode="[" 
 />
    <glyph glyph-name="backslash" unicode="\" 
 />
    <glyph glyph-name="bracketright" unicode="]" 
 />
    <glyph glyph-name="asciicircum" unicode="^" 
 />
    <glyph glyph-name="underscore" unicode="_" 
 />
    <glyph glyph-name="grave" unicode="`" 
 />
    <glyph glyph-name="a" unicode="a" horiz-adv-x="816" 
d="M567 48q0 -25 -21 -32q-18 -8 -32 12q-7 10 -11.5 18t-7.5 15q-14 30 -25 52.5t-22 36.5q-24 33 -53 42q-25 8 -80 2q-32 -4 -60.5 -5t-54.5 1q-58 4 -86 -37l-2 -3l-1 -2q-10 -20 -16.5 -39.5t-15.5 -37.5l-21 -33q-14 -21 -29 -23q-7 -3 -20 8q-6 6 -7.5 14.5t0 17.5
t5 18.5t6.5 16.5l24 50q35 72 65.5 146t64.5 149q6 13 10.5 24.5t9.5 22.5q11 27 22 54.5t25 54.5l15 23q11 18 21 19q10 2 26 -17q17 -20 32.5 -47t26.5 -51q35 -74 65.5 -148.5t65.5 -146.5q11 -22 21.5 -44.5t22.5 -43.5q6 -15 12.5 -29t12.5 -28q5 -11 8 -18t4 -12z
M369 328q-10 24 -19.5 49.5t-22.5 49.5q-24 46 -53 44q-11 0 -19.5 -6t-14.5 -14.5t-11 -18.5t-8 -19q-11 -30 -21 -62t-19 -62q-7 -22 2 -33q6 -10 31 -12q22 -1 39 -1.5t28 0.5q22 0 58 6q37 6 44 33q3 16 -4 27q-2 4 -5.5 9.5t-4.5 9.5z" />
    <glyph glyph-name="b" unicode="b" horiz-adv-x="739" 
d="M400 431q-3 -7 -5 -14.5t-4 -13.5q-6 -21 2 -32q3 -5 22 -15q9 -6 23 -23q50 -65 32 -173q-11 -62 -59 -104q-35 -32 -52 -35q-9 -2 -24.5 -3t-38.5 -2q-37 -1 -73.5 -2t-72.5 -1q-30 0 -52.5 0.5t-37.5 1.5q-8 0 -24.5 2t-22.5 6l-3 6q-2 3 -3 7.5t-2 8.5q-2 10 -2 26
v53v83q0 21 -1.5 42t-1.5 43q2 46 2.5 91.5t-0.5 93.5q0 27 1.5 55t3.5 55q1 9 0.5 20t1.5 22q4 6 6 7q9 7 26.5 7h29.5q13 -1 26.5 -2t27.5 -1q26 -1 55 -2.5t61 -5.5q64 -6 108 -39q50 -39 54 -124q0 -13 -3 -38zM67 185q0 -14 0.5 -27t1.5 -26q1 -36 13 -44q3 -2 12 -5
t23 -5q10 -2 20.5 -2t21.5 -1q10 0 25.5 -2t36.5 -2q27 -1 55 3t57 12q58 16 74 80v1q3 13 4 29t-0.5 32t-6.5 31t-14 27l-1 1q-15 15 -34 23.5t-40 12t-42.5 4t-40.5 -0.5q-14 -2 -28 -3t-27 -2q-14 -2 -25 -2h-21q-36 1 -47 -10q-17 -14 -17 -47v-77zM329 494v1
q-9 27 -22.5 43.5t-31.5 26t-40 12.5t-49 3q-31 0 -62 -3q-40 -4 -52 -26q-8 -15 -4.5 -33.5t4.5 -34.5q1 -9 0.5 -21t-2.5 -27q-3 -29 8 -43q6 -9 16 -13.5t22 -6.5t24 -2h21q19 0 40 1t46 4q51 8 74 41q10 13 11.5 29t-0.5 35l-1 9z" />
    <glyph glyph-name="c" unicode="c" horiz-adv-x="691" 
d="M406 108q47 27 55 -18q4 -19 -20 -37q-11 -8 -20.5 -13.5t-17.5 -8.5q-23 -10 -41.5 -14.5t-32.5 -6.5q-26 -2 -55 -2t-61 5q-65 10 -105 45q-37 31 -61 75t-39 89l-2 6q-9 29 -6.5 64.5t1.5 66.5q0 24 1 42.5t5 31.5q7 25 32 68q27 48 61 83t92 47q15 2 52 12
q11 3 24.5 5t30.5 1q13 0 30.5 -3t40.5 -8q16 -5 49 -21q31 -13 37 -35q2 -8 -2 -17q-9 -15 -21 -18q-7 -2 -17.5 0t-25.5 10q-20 10 -37 17t-34.5 10.5t-36 2.5t-40.5 -7q-52 -16 -73 -27q-22 -12 -52 -57q-24 -35 -36.5 -73.5t-14.5 -79t6.5 -80.5t26.5 -77v-1h1
q43 -80 123 -100q58 -14 90 -6q9 1 17 3t17 4q34 7 59 22z" />
    <glyph glyph-name="d" unicode="d" horiz-adv-x="771" 
d="M424 576l3 -3q11 -13 20.5 -29t17.5 -36q6 -14 13.5 -26.5t12.5 -26.5q8 -22 12 -40t5 -34t0.5 -34.5t-3.5 -41.5q-2 -20 -2 -39.5t-4 -39.5q-5 -26 -15.5 -51.5t-24.5 -48.5q-25 -40 -70 -73l-8 -4q-11 -8 -19 -9q-11 -5 -21 -8.5t-19 -5.5q-52 -12 -107 -10.5t-107 0.5
q-19 0 -46 -0.5t-43 9.5q-14 7 -18 27q-1 4 -1 17q0 48 1 95.5t3 95.5q2 24 -1 49.5t-3 50.5v104v84q0 60 15 78q16 17 49 16q17 -1 31.5 -0.5t25.5 0.5q38 1 77.5 -1t81.5 -4q82 -5 144 -60v-1zM293 573h-1q-14 2 -34.5 2t-47.5 -2q-49 -3 -76 1q-44 7 -54 0
q-15 -11 -15 -43t1 -63t-1 -61q-5 -75 -3.5 -148.5t1.5 -146.5q0 -17 12 -27q12 -11 47 -6q1 0 2.5 0.5t2.5 0.5q20 1 37.5 0.5t33.5 -1.5q60 -4 115 6q56 12 87 73q14 27 24.5 52t16.5 50.5t7.5 52.5t-1.5 59q-6 62 -40 123q-17 29 -45.5 48t-67.5 29z" />
    <glyph glyph-name="e" unicode="e" horiz-adv-x="688" 
d="M0 75q-1 61 -0.5 122t0.5 122v35q0 27 -1.5 54.5t0.5 54.5q1 30 1 59.5t1 59.5q0 36 17 50q13 10 46 10q17 1 29.5 1.5t21.5 0.5q39 1 78 -0.5t78 -0.5q21 1 42 1.5t41 -1.5l51 -3q9 -1 15.5 -1t11.5 -2q21 -11 20 -31q-1 -9 -7 -14.5t-13.5 -8.5t-15.5 -4t-14 -1
q-61 0 -121 3q-6 1 -15 1h-20h-58q-23 0 -41 -0.5t-30 -0.5q-17 -1 -28 -4.5t-16 -11.5q-8 -12 -6 -30v-14t-1 -11q-2 -12 -3 -25.5t0 -29.5q0 -28 22 -47q18 -16 65 -13q21 1 41.5 3.5t41.5 1.5q9 0 23.5 -0.5t34.5 0.5q40 1 54 -14q5 -7 4 -23q-3 -18 -28 -22
q-23 -4 -37 -4q-18 -1 -35.5 -0.5t-35.5 -0.5q-22 -2 -45 -1t-48 3q-3 0 -7 0.5t-7 0.5h-1q-11 2 -22 -5q-18 -11 -20 -38q-2 -26 0 -45q1 -11 1.5 -20t-0.5 -16q-2 -15 -3.5 -29.5t-3.5 -29.5q-3 -38 10 -57q17 -23 59 -23q33 0 67 1.5t68 3.5q31 1 63.5 -2t64.5 -3
q12 0 32 0.5t31 -5.5q10 -6 11 -18q11 -36 -31 -38q-66 -3 -129.5 -2t-127.5 0q-4 0 -7.5 -0.5t-6.5 -0.5h-39.5t-27.5 1q-7 0 -16.5 0.5t-21.5 1.5q-10 1 -16.5 2t-9.5 2q-30 9 -30 56z" />
    <glyph glyph-name="f" unicode="f" horiz-adv-x="678" 
d="M451 621q14 -40 -32 -43q-60 -4 -121 -1.5t-121 -1.5q-24 -2 -56 3t-48 -13q-13 -13 -11 -33q1 -1 1 -7q0 -4 -0.5 -17t-1.5 -35q-2 -38 12 -54q15 -18 41 -18q16 -1 38.5 -1.5t52.5 -2.5q4 -1 16 0t32 2q11 1 29.5 2t28.5 -5q11 -8 11 -26q1 -13 -5 -19q-9 -10 -37 -10
q-14 0 -27.5 1t-26.5 2q-31 1 -62 0q-14 -2 -28 -2.5t-27 -0.5q-32 0 -42 -12q-7 -10 -7 -44q0 -45 1.5 -88.5t3.5 -86.5q1 -8 0.5 -19.5t-1.5 -26.5q-2 -30 -13 -40q-9 -9 -18.5 -9.5t-17 4t-12.5 13.5t-6 20q-2 14 -1.5 32t2.5 39q1 16 1.5 33t0.5 34q1 20 1.5 35.5
t2.5 26.5q2 26 -1 53t-3 54v111q0 31 -1.5 62t-1.5 63v3q6 26 29 37q15 7 46 7q15 0 31 -0.5t33 -0.5q66 0 131 1.5t131 -0.5q10 -1 19 -1.5t18 -2.5q9 -5 16 -17z" />
    <glyph glyph-name="g" unicode="g" horiz-adv-x="826" 
d="M526 79q-74 -66 -178 -71q-101 -4 -191 32l-1 1h-2q-15 5 -43 28q-27 24 -36 36q-15 20 -26.5 45t-23.5 48q-22 43 -24 73q-1 15 -0.5 34.5t2.5 44.5q9 110 69 203q5 8 19 19.5t36 23.5q46 25 78 35q21 7 47 10q60 7 123 -0.5t117 -38.5q8 -5 17.5 -12t22.5 -17
q25 -19 28 -38q1 -9 -6 -18q-11 -14 -21 -14q-12 0 -26 9.5t-22 15.5q-17 11 -27.5 18t-12.5 9q-51 27 -124 27q-17 0 -37 -1.5t-43 -5.5h-2l-2 -1q-127 -36 -165 -173q-13 -49 -5.5 -93t19.5 -90q19 -70 63 -101t111 -43h1q18 -3 33.5 -3t30.5 2.5t30.5 5.5t33.5 5
q71 9 101 51v1q22 34 18 95q-1 32 -23 52q-27 25 -75 23l-80 -3q-13 -1 -23 -1.5t-18 -0.5q-38 5 -33 34q3 20 28 26q45 4 88.5 1t89.5 0l43 3q29 2 43 -10q16 -12 17 -42q3 -30 3 -46q0 -27 1 -56.5t-4 -55.5q-7 -38 -39 -76z" />
    <glyph glyph-name="h" unicode="h" horiz-adv-x="766" 
d="M222 409q36 -1 72 -2.5t72 -6.5q28 -4 43 12q11 12 10.5 30t-0.5 34q1 25 1 43.5v30.5q0 6 0.5 16t1 20.5t2 20.5t4.5 16q9 21 33 19q26 -3 26 -45q-1 -25 -3 -50t0 -49v-1q0 -40 2 -80t4 -79q2 -24 0 -48.5t-2 -48.5q-1 -42 -1 -83.5v-83.5q0 -37 -7 -48q-4 -7 -16 -10
q-36 -9 -41 32q-5 51 -3.5 103t-0.5 104q-1 19 -4.5 42t-19.5 37q-15 12 -52 12q-18 0 -35.5 -1t-35.5 0h-57q-18 -1 -35.5 0.5t-35.5 2.5q-38 3 -57 -10q-23 -20 -23 -67q0 -31 1 -62.5t1 -61.5q0 -25 -1 -43.5t-1 -31.5q-1 -14 -2 -24t-3 -17q-11 -21 -35 -15
q-24 4 -24 37v65t1 65q1 31 0 62.5t-1 63.5q0 51 1 102l2 102q0 8 -1 22t-2 35q-2 43 3 54q13 19 30 18q30 -1 33 -47q1 -12 1.5 -21t0.5 -16v-14t-2 -21l-4 -30t-2 -29q-2 -32 12 -44q15 -11 40 -7q14 1 24 1h17q17 -1 34 -3t35 -2z" />
    <glyph glyph-name="i" unicode="i" horiz-adv-x="343" 
d="M33 15q-32 5 -32 38q-1 54 -1 106v106q0 30 3 60q2 22 2 41t-1 35q-1 10 -2 24t-2 33q0 10 0.5 24t1.5 33q1 14 1.5 24.5t0.5 18.5v22v1v8q-3 25 1 35q3 7 13 14q39 20 48 -25q8 -34 9.5 -66.5t-1.5 -64.5v-1q-3 -31 -1.5 -62t-1.5 -62q-3 -27 -5 -47t-3 -34
q-2 -20 -2 -41.5t1 -45.5q1 -5 1 -11.5v-15.5v-32t1 -31q0 -11 0.5 -20.5t-0.5 -19.5q0 -20 -1 -22q-4 -19 -30 -22z" />
    <glyph glyph-name="j" unicode="j" horiz-adv-x="596" 
d="M325 631q1 -5 1.5 -13t0.5 -19v-52q0 -28 -1 -49.5t-1 -35.5q-2 -47 3 -93q3 -33 0.5 -64.5t-2.5 -64.5q-1 -37 -5.5 -67t-13.5 -66l-1 -4v-2q-7 -17 -29 -42q-124 -106 -248 -16q-29 23 -28 45q1 8 18 19q8 5 16 3q7 -2 16 -6.5t17 -7.5q27 -16 57 -19q73 -6 106 28
q22 23 28 56.5t6 63.5q1 31 1.5 62t2.5 62q1 17 0 40t-5 54l-11 85q-3 16 -1 57q3 39 21 53q40 27 52 -7z" />
    <glyph glyph-name="k" unicode="k" horiz-adv-x="664" 
d="M0 630q51 42 57 -25q2 -14 2 -29t-1 -32q-1 -18 -1.5 -35t-0.5 -34q2 -50 26 -59q23 -9 49 20q18 20 38 41.5t44 41.5q20 17 39 35l38 36q4 4 12.5 10.5t21.5 16.5q24 19 36 22q22 4 33 -11q9 -17 -7 -34q-14 -19 -25 -31.5t-18 -19.5q-14 -14 -51 -42q-16 -12 -33 -26
t-31 -28q-25 -28 -28 -52q-1 -11 2.5 -25.5t13.5 -32.5q9 -18 19 -35.5t19 -35.5l9 -18t6 -13v-1q23 -44 57 -84.5t76 -81.5q22 -21 0 -43q-22 -23 -44 -1q-77 73 -114 132q-24 36 -43 75.5t-37 78.5q-16 33 -37 34q-18 0 -45 -32q-11 -14 -16 -29t-7 -31q-2 -24 3 -47.5
t2 -46.5q0 -6 -1 -8q-4 -28 -5 -53.5t0 -49.5q0 -29 -33 -32q-29 1 -29 31q0 48 -1.5 95.5t-3.5 96.5q-2 35 3 71t5 72q0 13 0.5 27t0.5 28q1 52 0 72l-11 62q-6 37 11 60z" />
    <glyph glyph-name="l" unicode="l" horiz-adv-x="617" 
d="M390 67q12 -8 12 -22q1 -33 -39 -33q-72 0 -144 2t-144 -3q-57 -3 -69 31q-6 15 -6 47q1 17 1.5 29.5t0.5 21.5q1 22 2.5 45.5t0.5 46.5q-2 48 -4 93.5t-1 93.5q1 23 2 45.5t1 46.5q1 29 0.5 53.5t-2.5 44.5q-2 27 25 32q39 8 42 -46q2 -23 3 -44.5t3 -41.5v-26l-4 -38
q-2 -16 -3.5 -32t-2.5 -31q-2 -38 -2 -66.5t1 -47.5q2 -24 2.5 -50t-1.5 -55q-2 -44 12 -58q11 -13 47 -16q18 -2 35.5 -3t35.5 -3q27 -3 55 -0.5t56 -1.5q18 -2 43.5 -3.5t41.5 -10.5z" />
    <glyph glyph-name="m" unicode="m" horiz-adv-x="864" 
d="M522 620q10 3 33 -3q23 -5 28 -14q0 -1 1 -2q3 -29 3 -86v-75q1 -30 2 -58t-1 -57t-4 -57t0 -56q1 -24 3 -47.5t0 -47.5l-3 -46q-2 -34 -7 -42q-11 -15 -25 -15q-33 2 -34 47q-3 64 0.5 128t-1.5 130l-3 44q-2 32 -27 35q-10 1 -17 -3t-12 -11t-8 -15.5t-6 -15.5
q-8 -20 -14.5 -36t-11.5 -28q-9 -21 -22 -42.5t-24 -41.5q-11 -22 -21.5 -41.5t-20.5 -39.5q-7 -12 -37 -11q-21 0 -31 12q-8 9 -16.5 25.5t-19.5 41.5q-8 17 -14.5 29.5t-11.5 20.5q-5 7 -12 22t-18 38l-27 57q-5 10 -8.5 15t-4.5 7q-15 19 -34 15q-25 -4 -25 -45
q0 -64 1 -120.5t3 -107.5v-19.5t-1 -30.5q-2 -36 -8 -45q-10 -15 -30 -13q-27 1 -27 39q0 45 -1.5 90t-2.5 93q-1 23 -0.5 41.5t2.5 31.5q3 25 3.5 44t-0.5 32q-1 16 -3 34.5t-5 39.5q-3 29 1 70q4 43 12 70q3 12 6 17q28 30 55 -6q11 -15 21 -31t21 -33q16 -23 28 -50.5
t24 -53.5t21.5 -45.5t17.5 -31.5l4 -6q11 -17 19 -34.5t16 -34.5q22 -47 45 -48q23 0 33 20q5 11 9.5 21t7.5 19q7 17 16.5 35.5t20.5 37.5q21 36 43 71t40 74q5 12 13 26t17 28l19 30q1 2 3.5 6t6.5 9z" />
    <glyph glyph-name="n" unicode="n" horiz-adv-x="767" 
d="M57 36q-4 -18 -31 -21q-28 1 -28 31q0 78 -3.5 157.5t4.5 157.5v1q0 23 0.5 45t-1.5 43l-8 76q-3 32 10 69q10 26 27 31q14 3 29 -14q14 -15 21 -26q13 -19 26.5 -34t26.5 -28q11 -13 22.5 -22.5t22.5 -21.5q10 -10 22 -25.5t26 -36.5l44 -68q5 -7 10.5 -16t13.5 -21
l1 -1q21 -28 44 -53q11 -12 22 -22.5t23 -21.5q11 -13 26 -8q23 6 22 46q0 10 -1.5 21t-1.5 22q-1 8 -2 15.5t-1 16.5q0 4 -0.5 9t-0.5 11q4 88 -6 164q-1 5 -1 16.5t2 29.5q1 22 6 47q3 36 32 36q32 0 32 -38q1 -31 2.5 -62.5t1.5 -62.5q1 -46 -2 -92t-1 -92q2 -31 1.5 -61
t-1.5 -60q0 -17 0.5 -33.5t0.5 -31.5v-40q-1 -6 -1.5 -12t-0.5 -11q-1 -1 -1 -2t-1 -1q-11 -15 -34 -15q-27 -2 -41 17q-15 19 -27.5 41t-27.5 43q-18 24 -39.5 51.5t-47.5 58.5q-10 11 -28 40l-35 56q-13 20 -26 40.5t-27 39.5q-6 7 -13 15.5t-15 14.5t-18 9t-20 0
q-27 -8 -25 -55q1 -34 1.5 -64t2.5 -56q2 -21 -0.5 -42t-2.5 -41v-78q0 -25 -1.5 -45t-3.5 -36z" />
    <glyph glyph-name="o" unicode="o" horiz-adv-x="847" 
d="M206 17q-20 6 -40.5 15.5t-40 22t-36.5 28t-29 33.5q-16 25 -23 51.5t-20 54.5q-10 22 -11 48q-1 12 -2.5 24.5t-1.5 24.5q-1 12 -1.5 21t-0.5 15q0 19 2.5 39.5t7.5 42.5q1 7 6 18q10 30 25.5 56.5t35.5 49.5q39 44 109 78q32 14 67 13q22 -2 44 -6q18 -3 31.5 -4.5
t23.5 -3.5q77 -9 136 -68q13 -13 24.5 -28.5t22.5 -33.5l5 -8q1 -3 2 -5l2 -4q17 -40 31 -100q13 -56 4 -103q-6 -27 -15 -52t-16 -50q-39 -134 -176 -169l-8 -2q-8 -2 -20 -4t-28 -4q-26 -3 -53.5 -1t-56.5 11zM307 589q-54 0 -97.5 -13t-78.5 -48q-48 -48 -61 -106.5
t1 -130.5l9 -49q2 -14 4 -22.5t3 -10.5q6 -22 24 -42t33 -35q8 -9 16 -17.5t17 -15.5q15 -13 50 -24h1q19 -5 42.5 -3.5t52.5 8.5q14 4 28.5 5.5t29.5 5.5q37 9 62 40h1v1q16 19 27 48q10 29 15 37q50 98 15 212l-1 1q-4 11 -8 21t-11 20q-39 59 -93 85q-2 1 -9 5t-20 12
q-18 11 -51 16h-1z" />
    <glyph glyph-name="p" unicode="p" horiz-adv-x="693" 
d="M59 265q1 -25 0 -50t0 -49q1 -80 0 -120q0 -18 -15 -27q-16 -8 -28 -1q-12 4 -14 23q-2 32 -3 64t-1 65q1 40 1.5 80t0.5 82q0 24 0.5 48.5t-0.5 48.5q0 28 -0.5 58.5t1.5 64.5q1 6 1 15v22q0 21 1 24q1 9 17 20q13 8 53 10q20 1 34.5 1.5t24.5 0.5q27 1 55.5 -1t57.5 -3
q16 -1 35.5 -2.5t42.5 -5.5q46 -6 72 -27h1q34 -29 51.5 -63t15.5 -76q-1 -29 -14 -50.5t-36 -37.5q-43 -30 -94 -41q4 2 -14 -3q-30 -4 -60.5 -2.5t-60.5 -2.5q-10 -1 -23.5 -1.5t-32.5 0.5q-35 2 -51 -10q-20 -15 -18 -54zM225 392q39 0 76 4t72 30q37 28 30 66
q-8 38 -42 62q-8 6 -18.5 10.5t-21.5 8.5q-51 11 -95 5q-22 -3 -45 -4.5t-47 -0.5q-12 0 -21 0.5t-14 1.5q-6 2 -11 0q-25 -6 -27 -44q-1 -8 -1.5 -21t-0.5 -30q1 -5 1 -12.5v-17.5q2 -35 22 -51q19 -17 66 -15q17 1 33.5 3t34.5 5h9z" />
    <glyph glyph-name="q" unicode="q" horiz-adv-x="843" 
d="M353 18q-50 -12 -119 -3q-23 3 -42.5 14t-41.5 19q-39 14 -67.5 39.5t-47.5 63.5q-18 38 -26.5 77t-8.5 78q-1 7 -0.5 16.5t0.5 22.5q1 18 2.5 37t4.5 38q4 36 18 66q13 29 33 55.5t50 49.5q83 64 195 67q23 1 49.5 -11t46.5 -24q5 -4 38 -18q21 -11 36 -24
q19 -18 36 -48q1 -2 5 -9t12 -20l1 -1l1 -1q9 -9 16 -26.5t14 -42.5q15 -50 18 -74q11 -122 -52 -214q-12 -17 -24.5 -34t-21.5 -34l-8 -16l12 -13q6 -6 19.5 -13t36.5 -12q14 -5 20 -9q4 -4 4 -14t-6.5 -16t-15 -8t-18.5 -1.5t-18 2.5q-18 5 -37 15.5t-39 25.5
q-17 14 -34 12q-3 0 -11 -2t-22 -7zM299 215q70 7 83 -27q13 -32 46 -34q23 0 40 32q8 15 14.5 32.5t13.5 35.5q40 107 -19 216q-7 12 -11 19t-5 9q-84 132 -240 80h-1l-1 -1q-10 -4 -20.5 -10.5t-23.5 -14.5q-21 -15 -44 -31t-38 -36q-27 -38 -31 -109q-1 -12 -1 -31.5
t2 -46.5q3 -53 12 -74v-1l1 -1q82 -169 258 -142q25 4 29 24q1 16 -15 31q-3 1 -12 8q-17 13 -39 18q-20 3 -21 4q-7 3 -11 18q-4 10 2 18q8 11 32 14z" />
    <glyph glyph-name="r" unicode="r" horiz-adv-x="729" 
d="M396 604q21 -21 33.5 -46l25.5 -51q14 -29 8.5 -58.5t-32.5 -57.5q-21 -22 -70 -35q-18 -5 -38.5 -10.5t-28.5 -23.5q-6 -17 3 -35q10 -19 16 -31t10 -18q5 -10 13 -22.5t19 -28.5q23 -32 48.5 -60t51.5 -54l5 -5q22 -22 1 -43q-23 -23 -44 -1l-30 30t-24 26
q-24 30 -45 63q-15 22 -30.5 42.5t-29.5 44.5q-40 72 -99 95q-63 23 -92 -18q-9 -14 -9 -31v-217v-13q0 -30 -31 -31q-31 1 -31 38q0 23 1.5 47.5t2.5 52.5q1 19 -0.5 39t-1.5 39t1 38t1 38q1 45 -3 93q0 33 1.5 67t0.5 69q-1 18 -1 40.5t6 40.5q18 24 85 24h31
q36 0 72.5 -3t72.5 -1q83 4 131 -33zM115 388q38 -1 67 -1t49 2q19 2 42.5 5t51.5 8q57 12 74 53q7 15 5 33t-11.5 33t-24 25.5t-31.5 18t-33 10.5q-42 8 -83.5 6.5t-83.5 0.5q-8 0 -15.5 0.5t-15.5 0.5q-21 1 -32 -11q-9 -10 -7 -28q1 -5 1 -21q-1 -15 -3.5 -29t-3.5 -28
q-6 -39 9 -58q13 -18 45 -20z" />
    <glyph glyph-name="s" unicode="s" horiz-adv-x="700" 
d="M436 105q-17 -21 -32.5 -37t-32.5 -27.5t-37.5 -19t-46.5 -10.5q-13 -2 -27 -2.5t-30 1.5q-22 2 -43 2t-43 5q-48 11 -80 33t-49 57q-22 48 25 50q8 0 18.5 -11.5t16.5 -17.5q21 -21 24 -23h1v-1q49 -34 130 -34h1h1q34 0 87 14q52 13 69 53q9 24 0 52v1q-25 53 -97 71
l-123 32q-26 6 -63 25q-19 10 -33 18t-23 16q-41 30 -48 60q-1 5 -1 14v22q0 14 2 27.5t4 28.5q6 46 39 82q15 15 36.5 25.5t41.5 19.5q28 13 58.5 13.5t60.5 -0.5q98 -3 153 -69q25 -31 19 -51l-7 -6q-16 -8 -38 11q-6 4 -11 9l-10 10t-13 10.5t-18 10.5l-2 2h-3
q-37 11 -75.5 13t-79.5 -7q-49 -11 -75 -40.5t-26 -78.5v-2l1 -2q4 -62 96 -88l29 -8l74 -25q17 -6 34 -13.5t36 -15.5q28 -13 52 -25t44 -25q14 -9 21.5 -22t10 -28t2 -31t-3.5 -29q-2 -11 -6.5 -21t-9.5 -18z" />
    <glyph glyph-name="t" unicode="t" horiz-adv-x="732" 
d="M481 593q-14 -16 -46 -14l-50 3q-15 1 -29 2t-29 1q-30 1 -44 -13q-11 -13 -11 -43q0 -14 1.5 -27.5t1.5 -27.5q1 -33 1.5 -57.5t0.5 -41.5q0 -51 -6 -102q-3 -24 0 -48t4 -47q1 -26 1.5 -45t0.5 -32v-13.5t-1 -21.5q-2 -27 -4 -33q-13 -22 -34 -16q-26 5 -26 38
q-1 30 1.5 60.5t4.5 60.5q3 35 -0.5 71t-3.5 72q0 33 2.5 66.5t3.5 66.5q0 65 -21 92q-11 14 -26.5 21.5t-34.5 9.5t-35.5 3.5t-32.5 1.5h-30.5t-28.5 6q-8 4 -10 19q-2 11 3 19q7 12 35 15q3 1 11 1q42 1 81.5 -3.5t81.5 -1.5q17 1 33.5 3t34.5 2h66.5t66.5 1q17 0 29.5 -1
t21.5 -5q31 -21 16 -42z" />
    <glyph glyph-name="u" unicode="u" horiz-adv-x="761" 
d="M460 641q30 1 30 -30q0 -42 -0.5 -82t-5.5 -82q-5 -39 -0.5 -77t4.5 -76v-7l-4 -68q-2 -22 -5 -39t-5 -28l-2 -4l-2 -7v-1q-3 -12 -11 -24.5t-17.5 -24t-20.5 -21.5t-20 -18q-17 -15 -37 -24t-42 -13t-44.5 -5.5t-43.5 -1.5q-37 0 -72 8.5t-68 28.5q-2 2 -2 3q-3 1 -5 3
l-4 4q-3 2 -5 3.5t-4 4.5q-50 53 -64 132q-6 39 -8 76.5t0 73.5q1 9 2 17.5t2 17.5q1 12 0.5 23t-1.5 21q-6 79 -3 187q1 21 26 30q20 6 34 -4q8 -8 8 -18q1 -14 0.5 -36t-1.5 -51q0 -25 -2 -50t-2 -49q0 -30 -2 -58.5t-2 -57.5q0 -56 18 -126q2 -9 4.5 -16.5t4.5 -15.5
q15 -47 46 -65q23 -14 86 -18q8 -1 16 -2.5t17 -1.5h1h1q48 0 84 17t61 59q20 34 20 104v22.5t1 15.5q10 89 -2 186q-2 13 3 48q2 14 3 25t1 19q0 43 6 58q8 15 28 15z" />
    <glyph glyph-name="v" unicode="v" horiz-adv-x="810" 
d="M112 521q8 -17 12.5 -35l9 -36t10 -36t14.5 -34q18 -32 31.5 -63.5t28.5 -63.5l21 -44q16 -26 39 -28q30 -3 53 48q13 27 24 58t21 61q1 3 5.5 12.5t14.5 26.5q6 11 11.5 20.5t10.5 17.5q23 46 46 95t41 100q3 14 11 17t33 -7q19 -11 20 -16q2 -10 -5 -24.5t-10 -22.5
l-10 -18q-9 -16 -16 -31.5t-15 -30.5q-14 -27 -24.5 -55t-22.5 -55q-27 -60 -54.5 -119.5t-59.5 -116.5q-13 -23 -23 -55q-10 -34 -29 -48q-8 -5 -18 -7q-6 -2 -17 3q-8 3 -13.5 10t-10 16t-8.5 18t-7 16q-22 33 -40 74.5t-39 89.5q-15 32 -27.5 65t-29.5 65q-7 10 -21 55
l-5 17.5t-9 24.5q-8 21 -18.5 41t-20.5 41q-16 37 -16 47q3 19 20 25q29 12 44 -23q11 -25 24 -48t24 -47z" />
    <glyph glyph-name="w" unicode="w" horiz-adv-x="913" 
d="M306 331q13 22 26 22q12 -1 21 -22q11 -24 22.5 -45.5t22.5 -46.5l13 -31q12 -27 32 -24q1 0 7 2q17 5 20 32q2 8 3 16.5t3 17.5q3 16 5.5 30t6.5 25q3 9 9 22t14 30q22 48 37.5 98t30.5 101l11 38q7 27 16 36q16 17 40 4q19 -13 10 -42q-15 -47 -36 -87q-5 -12 -9 -26
q-2 -8 -4.5 -16.5t-5.5 -18.5q-5 -17 -8 -31t-6 -25q-5 -20 -8 -34t-5 -21q-14 -48 -29 -93t-33 -90q-7 -16 -10.5 -34t-7.5 -34q-9 -44 -25 -58q-11 -8 -24 -8q-12 0 -21.5 6t-16.5 16t-11.5 21t-7.5 22q-6 15 -10 31.5t-10 33.5q-14 39 -41 39q-25 0 -38 -25
q-7 -13 -12 -23.5t-8 -19.5q-5 -12 -8.5 -24.5t-6.5 -24.5v-1q-9 -35 -18 -44q-8 -6 -30 -6q-25 1 -34 44q-2 13 -5.5 22.5t-5.5 17.5q-23 51 -40 103.5t-32 106.5q-10 33 -18.5 66t-21.5 66q-8 22 -16 43t-14 42l-8.5 25.5t-7.5 27.5q-4 15 -4 29q2 28 28 29q24 1 32 -28
q7 -25 13 -48.5t16 -47.5q13 -34 27.5 -65.5t23.5 -66.5q5 -16 10 -30.5t11 -29.5q10 -24 13 -44q3 -15 6 -30.5t6 -29.5q9 -37 31 -38q22 -4 42 34q7 14 14.5 28t15.5 29q7 13 15 44q0 3 1 6.5t2 6.5z" />
    <glyph glyph-name="x" unicode="x" horiz-adv-x="686" 
d="M280 481q14 26 33 50t36 50q8 12 18 27.5t22 23.5q10 7 26 4q36 -8 12 -47q-15 -24 -33 -46.5t-33 -47.5q-11 -17 -26.5 -40.5t-35.5 -52.5q-17 -23 -37 -56q-20 -35 -8 -61q5 -13 19.5 -30t23.5 -28l33 -41q19 -29 36 -59.5t37 -59.5l4 -6q18 -27 -11 -41
q-26 -17 -43 10q-20 31 -39 62.5t-34 64.5v1q-9 16 -16.5 27t-12.5 18q-19 20 -41 19q-27 -5 -46 -48q-12 -25 -20.5 -42t-13.5 -25q-12 -20 -23.5 -39t-23.5 -38q-16 -27 -44 -10q-27 15 -10 41q17 28 36 54.5t39 53.5l1 2l1 1q12 21 21 37t14 27q4 9 10 21t10 24.5t5.5 25
t-2.5 23.5v1q-25 58 -60.5 111t-70.5 106l-20 30q-8 11 -10.5 19.5t-2.5 14.5q2 21 22 27q23 6 34 -15l17 -34q6 -12 13 -22.5t14 -19.5q23 -30 53 -89q9 -17 19.5 -35.5t31.5 -20.5q21 -5 44 23q7 9 14 23t18 32z" />
    <glyph glyph-name="y" unicode="y" horiz-adv-x="675" 
d="M408 636q42 1 19 -44q-5 -10 -14 -23t-22 -30q-29 -38 -45 -70q-15 -30 -34.5 -60t-42.5 -61v-1q-12 -18 -17.5 -34.5t-7.5 -31.5q-2 -18 0.5 -35t2.5 -34q0 -24 -1.5 -46.5t1.5 -46.5q1 -9 2 -21t2 -28q2 -32 -10 -46q-7 -7 -22 -9q-32 -3 -35 47q-2 45 2 92t7 93
q3 39 -13 63q-8 11 -15.5 25t-17.5 30q-11 17 -21.5 34.5t-21.5 35.5q-12 19 -20 33.5t-13 24.5q-8 14 -13 24t-9 15t-10 13t-14 18q-25 32 -25 47q-2 9 4 19q28 33 53 -4q21 -30 37 -63t34 -64q14 -23 24.5 -38.5t20.5 -24.5q24 -27 51 -21q24 5 46 37q9 12 17 25t17 26
q8 10 14 22.5t11.5 25.5t11.5 26t14 25q22 31 53 35z" />
    <glyph glyph-name="z" unicode="z" horiz-adv-x="720" 
d="M0 57q1 16 8 30t17 26.5t21.5 23.5t22.5 22q21 21 36 40q4 5 7.5 12t8.5 15q16 33 27 50t34 46q23 28 44 58t43 60q32 43 45 70q17 36 2 58q-13 19 -42 19h-25.5t-21.5 -1q-33 -3 -65.5 -6t-65.5 -4q-11 0 -23 1t-24 5q-25 8 -26 35q-2 10 15 15l24 6q13 3 25.5 3.5
t25.5 -0.5q19 -1 33 -1.5t23 -0.5q9 1 22.5 1.5t31.5 3.5q12 2 25 2.5t27 -1.5q27 -2 55.5 -3t56.5 -1q41 0 52 -18q7 -15 -3 -43q-5 -14 -9.5 -24t-8.5 -17q-19 -37 -47.5 -68.5t-55.5 -61.5q-20 -22 -34 -50.5t-31 -51.5q-32 -46 -64.5 -88.5t-62.5 -87.5q-16 -22 -5 -41
q5 -8 12.5 -11t16 -3.5t17.5 0.5t17 1h8q64 0 128 -0.5t128 -0.5q32 0 32 -30q0 -31 -32 -31q-100 0 -197 -1t-196 1q-50 0 -52 42z" />
    <glyph glyph-name="braceleft" unicode="{" 
 />
    <glyph glyph-name="bar" unicode="|" 
 />
    <glyph glyph-name="braceright" unicode="}" 
 />
    <glyph glyph-name="asciitilde" unicode="~" 
 />
    <glyph glyph-name="Euro" unicode="&#x20ac;" 
 />
    <glyph glyph-name="quotesinglbase" unicode="&#x201a;" 
 />
    <glyph glyph-name="quotedblbase" unicode="&#x201e;" 
 />
    <glyph glyph-name="ellipsis" unicode="&#x2026;" 
 />
    <glyph glyph-name="dagger" unicode="&#x2020;" 
 />
    <glyph glyph-name="daggerdbl" unicode="&#x2021;" 
 />
    <glyph glyph-name="circumflex" unicode="&#x2c6;" 
 />
    <glyph glyph-name="guilsinglleft" unicode="&#x2039;" 
 />
    <glyph glyph-name="quoteleft" unicode="&#x2018;" 
 />
    <glyph glyph-name="quoteright" unicode="&#x2019;" 
 />
    <glyph glyph-name="quotedblleft" unicode="&#x201c;" 
 />
    <glyph glyph-name="quotedblright" unicode="&#x201d;" 
 />
    <glyph glyph-name="bullet" unicode="&#x2022;" 
 />
    <glyph glyph-name="endash" unicode="&#x2013;" 
 />
    <glyph glyph-name="emdash" unicode="&#x2014;" 
 />
    <glyph glyph-name="tilde" unicode="&#x2dc;" 
 />
    <glyph glyph-name="trademark" unicode="&#x2122;" 
 />
    <glyph glyph-name="guilsinglright" unicode="&#x203a;" 
 />
    <glyph glyph-name="uni00A0" unicode="&#xa0;" 
 />
    <glyph glyph-name="exclamdown" unicode="&#xa1;" 
 />
    <glyph glyph-name="cent" unicode="&#xa2;" 
 />
    <glyph glyph-name="sterling" unicode="&#xa3;" 
 />
    <glyph glyph-name="currency" unicode="&#xa4;" 
 />
    <glyph glyph-name="yen" unicode="&#xa5;" 
 />
    <glyph glyph-name="brokenbar" unicode="&#xa6;" 
 />
    <glyph glyph-name="section" unicode="&#xa7;" 
 />
    <glyph glyph-name="dieresis" unicode="&#xa8;" 
 />
    <glyph glyph-name="copyright" unicode="&#xa9;" 
 />
    <glyph glyph-name="ordfeminine" unicode="&#xaa;" 
 />
    <glyph glyph-name="guillemotleft" unicode="&#xab;" 
 />
    <glyph glyph-name="logicalnot" unicode="&#xac;" 
 />
    <glyph glyph-name="uni00AD" unicode="&#xad;" 
 />
    <glyph glyph-name="registered" unicode="&#xae;" 
 />
    <glyph glyph-name="macron" unicode="&#xaf;" 
 />
    <glyph glyph-name="degree" unicode="&#xb0;" 
 />
    <glyph glyph-name="plusminus" unicode="&#xb1;" 
 />
    <glyph glyph-name="uni00B2" unicode="&#xb2;" 
 />
    <glyph glyph-name="uni00B3" unicode="&#xb3;" 
 />
    <glyph glyph-name="acute" unicode="&#xb4;" 
 />
    <glyph glyph-name="mu" unicode="&#xb5;" 
 />
    <glyph glyph-name="paragraph" unicode="&#xb6;" 
 />
    <glyph glyph-name="periodcentered" unicode="&#xb7;" 
 />
    <glyph glyph-name="cedilla" unicode="&#xb8;" 
 />
    <glyph glyph-name="uni00B9" unicode="&#xb9;" 
 />
    <glyph glyph-name="ordmasculine" unicode="&#xba;" 
 />
    <glyph glyph-name="guillemotright" unicode="&#xbb;" 
 />
    <glyph glyph-name="onequarter" unicode="&#xbc;" 
 />
    <glyph glyph-name="onehalf" unicode="&#xbd;" 
 />
    <glyph glyph-name="threequarters" unicode="&#xbe;" 
 />
    <glyph glyph-name="questiondown" unicode="&#xbf;" 
 />
    <glyph glyph-name="Agrave" unicode="&#xc0;" 
 />
    <glyph glyph-name="Aacute" unicode="&#xc1;" 
 />
    <glyph glyph-name="Acircumflex" unicode="&#xc2;" 
 />
    <glyph glyph-name="Atilde" unicode="&#xc3;" 
 />
    <glyph glyph-name="Adieresis" unicode="&#xc4;" 
 />
    <glyph glyph-name="Aring" unicode="&#xc5;" 
 />
    <glyph glyph-name="AE" unicode="&#xc6;" 
 />
    <glyph glyph-name="Ccedilla" unicode="&#xc7;" 
 />
    <glyph glyph-name="Egrave" unicode="&#xc8;" 
 />
    <glyph glyph-name="Eacute" unicode="&#xc9;" 
 />
    <glyph glyph-name="Ecircumflex" unicode="&#xca;" 
 />
    <glyph glyph-name="Edieresis" unicode="&#xcb;" 
 />
    <glyph glyph-name="Igrave" unicode="&#xcc;" 
 />
    <glyph glyph-name="Iacute" unicode="&#xcd;" 
 />
    <glyph glyph-name="Icircumflex" unicode="&#xce;" 
 />
    <glyph glyph-name="Idieresis" unicode="&#xcf;" 
 />
    <glyph glyph-name="Eth" unicode="&#xd0;" 
 />
    <glyph glyph-name="Ntilde" unicode="&#xd1;" 
 />
    <glyph glyph-name="Ograve" unicode="&#xd2;" 
 />
    <glyph glyph-name="Oacute" unicode="&#xd3;" 
 />
    <glyph glyph-name="Ocircumflex" unicode="&#xd4;" 
 />
    <glyph glyph-name="Otilde" unicode="&#xd5;" 
 />
    <glyph glyph-name="Odieresis" unicode="&#xd6;" 
 />
    <glyph glyph-name="multiply" unicode="&#xd7;" 
 />
    <glyph glyph-name="Oslash" unicode="&#xd8;" 
 />
    <glyph glyph-name="Ugrave" unicode="&#xd9;" 
 />
    <glyph glyph-name="Uacute" unicode="&#xda;" 
 />
    <glyph glyph-name="Ucircumflex" unicode="&#xdb;" 
 />
    <glyph glyph-name="Udieresis" unicode="&#xdc;" 
 />
    <glyph glyph-name="Yacute" unicode="&#xdd;" 
 />
    <glyph glyph-name="Thorn" unicode="&#xde;" 
 />
    <glyph glyph-name="germandbls" unicode="&#xdf;" 
 />
    <glyph glyph-name="agrave" unicode="&#xe0;" 
 />
    <glyph glyph-name="aacute" unicode="&#xe1;" 
 />
    <glyph glyph-name="acircumflex" unicode="&#xe2;" 
 />
    <glyph glyph-name="atilde" unicode="&#xe3;" 
 />
    <glyph glyph-name="adieresis" unicode="&#xe4;" 
 />
    <glyph glyph-name="aring" unicode="&#xe5;" 
 />
    <glyph glyph-name="ae" unicode="&#xe6;" 
 />
    <glyph glyph-name="ccedilla" unicode="&#xe7;" 
 />
    <glyph glyph-name="egrave" unicode="&#xe8;" 
 />
    <glyph glyph-name="eacute" unicode="&#xe9;" 
 />
    <glyph glyph-name="ecircumflex" unicode="&#xea;" 
 />
    <glyph glyph-name="edieresis" unicode="&#xeb;" 
 />
    <glyph glyph-name="igrave" unicode="&#xec;" 
 />
    <glyph glyph-name="iacute" unicode="&#xed;" 
 />
    <glyph glyph-name="icircumflex" unicode="&#xee;" 
 />
    <glyph glyph-name="idieresis" unicode="&#xef;" 
 />
    <glyph glyph-name="eth" unicode="&#xf0;" 
 />
    <glyph glyph-name="ntilde" unicode="&#xf1;" 
 />
    <glyph glyph-name="ograve" unicode="&#xf2;" 
 />
    <glyph glyph-name="oacute" unicode="&#xf3;" 
 />
    <glyph glyph-name="ocircumflex" unicode="&#xf4;" 
 />
    <glyph glyph-name="otilde" unicode="&#xf5;" 
 />
    <glyph glyph-name="odieresis" unicode="&#xf6;" 
 />
    <glyph glyph-name="divide" unicode="&#xf7;" 
 />
    <glyph glyph-name="oslash" unicode="&#xf8;" 
 />
    <glyph glyph-name="ugrave" unicode="&#xf9;" 
 />
    <glyph glyph-name="uacute" unicode="&#xfa;" 
 />
    <glyph glyph-name="ucircumflex" unicode="&#xfb;" 
 />
    <glyph glyph-name="udieresis" unicode="&#xfc;" 
 />
    <glyph glyph-name="yacute" unicode="&#xfd;" 
 />
    <glyph glyph-name="thorn" unicode="&#xfe;" 
 />
    <glyph glyph-name="ydieresis" unicode="&#xff;" 
 />
    <glyph glyph-name="_127" 
 />
    <glyph glyph-name="_129" 
 />
    <glyph glyph-name="_131" 
 />
    <glyph glyph-name="dotlessi" unicode="&#x131;" 
 />
    <glyph glyph-name="caron" unicode="&#x2c7;" 
 />
    <glyph glyph-name="uni02C9" unicode="&#x2c9;" 
 />
    <glyph glyph-name="breve" unicode="&#x2d8;" 
 />
    <glyph glyph-name="dotaccent" unicode="&#x2d9;" 
 />
    <glyph glyph-name="ring" unicode="&#x2da;" 
 />
    <glyph glyph-name="ogonek" unicode="&#x2db;" 
 />
    <glyph glyph-name="hungarumlaut" unicode="&#x2dd;" 
 />
    <glyph glyph-name="fraction" unicode="&#x2044;" 
 />
    <glyph glyph-name="franc" unicode="&#x20a3;" 
 />
    <glyph glyph-name="lira" unicode="&#x20a4;" 
 />
    <glyph glyph-name="peseta" unicode="&#x20a7;" 
 />
    <glyph glyph-name="uni2116" unicode="&#x2116;" 
 />
    <glyph glyph-name="partialdiff" unicode="&#x2202;" 
 />
    <glyph glyph-name="Delta" unicode="&#x2206;" 
 />
    <glyph glyph-name="product" unicode="&#x220f;" 
 />
    <glyph glyph-name="summation" unicode="&#x2211;" 
 />
    <glyph glyph-name="minus" unicode="&#x2212;" 
 />
    <glyph glyph-name="radical" unicode="&#x221a;" 
 />
    <glyph glyph-name="infinity" unicode="&#x221e;" 
 />
    <glyph glyph-name="integral" unicode="&#x222b;" 
 />
    <glyph glyph-name="approxequal" unicode="&#x2248;" 
 />
    <glyph glyph-name="lessequal" unicode="&#x2264;" 
 />
    <glyph glyph-name="greaterequal" unicode="&#x2265;" 
 />
    <glyph glyph-name="uniF001" unicode="&#xf001;" 
 />
    <glyph glyph-name="uniF002" unicode="&#xf002;" 
 />
    <glyph glyph-name="uni037E" unicode="&#x37e;" 
 />
    <glyph glyph-name="uni2219" unicode="&#x2219;" 
 />
    <glyph glyph-name="uni2215" unicode="&#x2215;" 
 />
    <glyph glyph-name="fi" unicode="&#xfb01;" 
 />
    <glyph glyph-name="fl" unicode="&#xfb02;" 
 />
    </font>
</defs>
</svg>
