<?xml version="1.0" encoding="UTF-8" standalone="no"?>
<svg
   xmlns:dc="http://purl.org/dc/elements/1.1/"
   xmlns:cc="http://creativecommons.org/ns#"
   xmlns:rdf="http://www.w3.org/1999/02/22-rdf-syntax-ns#"
   xmlns:svg="http://www.w3.org/2000/svg"
   xmlns="http://www.w3.org/2000/svg"
   xmlns:sodipodi="http://sodipodi.sourceforge.net/DTD/sodipodi-0.dtd"
   xmlns:inkscape="http://www.inkscape.org/namespaces/inkscape"
   width="1848.845"
   height="2247.62"
   version="1.1"
   id="svg4"
   sodipodi:docname="black_logo_transparent_notext.svg"
   inkscape:version="0.92.2 2405546, 2018-03-11">
  <metadata
     id="metadata10">
    <rdf:RDF>
      <cc:Work
         rdf:about="">
        <dc:format>image/svg+xml</dc:format>
        <dc:type
           rdf:resource="http://purl.org/dc/dcmitype/StillImage" />
        <dc:title></dc:title>
      </cc:Work>
    </rdf:RDF>
  </metadata>
  <defs
     id="defs8" />
  <sodipodi:namedview
     pagecolor="#ffffff"
     bordercolor="#666666"
     borderopacity="1"
     objecttolerance="10"
     gridtolerance="10"
     guidetolerance="10"
     inkscape:pageopacity="0"
     inkscape:pageshadow="2"
     inkscape:window-width="1920"
     inkscape:window-height="1056"
     id="namedview6"
     showgrid="false"
     inkscape:zoom="0.29698471"
     inkscape:cx="1144.1446"
     inkscape:cy="1015.1924"
     inkscape:window-x="1920"
     inkscape:window-y="0"
     inkscape:window-maximized="1"
     inkscape:current-layer="svg4" />
  <path
     fill="#fff"
     d="M1793.897 2070.284c.101-1.067.637-2.011.637-3.114v-349.78l-262.564-272.092c176.354-127.855 289.24-268.834 297.724-279.579l16.802-21.31-16.802-21.313c-8.34-10.585-117.883-147.476-289.624-273.735l239.01-219.99V178.485c33.677-13.94 57.437-47.066 57.437-85.71 0-51.161-41.63-92.775-92.776-92.775-51.151 0-92.78 41.614-92.78 92.776 0 37.832 22.84 70.328 55.37 84.754v419.948l-227.426 209.34c-143.076-94.201-320.532-172.773-514.612-172.773-43.76 0-86.703 4.05-128.58 11.315V315.183l86.563-129.716c.248.016.497.09.78.09 51.147 0 92.776-41.614 92.776-92.78 0-51.162-41.63-92.776-92.776-92.776-51.146 0-92.776 41.614-92.776 92.776 0 24.156 9.482 45.982 24.649 62.496l-91.96 137.854v368.48c-164.492 44.08-309.735 134.763-422.19 224.398V479.122H155.223V178.059c33.071-14.189 56.334-47.066 56.334-85.282 0-51.162-41.63-92.776-92.776-92.776-51.15 0-92.78 41.614-92.78 92.776 0 38.29 23.298 71.198 56.478 85.352v373.74h185.556v395.619c-101.233 90.695-163.004 167.776-169.182 175.608l-16.797 21.314 16.797 21.31c8.955 11.346 134.053 167.562 327.282 300.422L56.692 1835.616v233.72C23.411 2083.44 0 2116.456 0 2154.836c0 51.166 41.63 92.78 92.78 92.78s92.78-41.614 92.78-92.78c0-38.146-23.158-70.95-56.12-85.192V1865.74l359.067-359.087c115.686 70.578 251.233 128.174 398.177 143.749v416.772c0 .746.392 1.37.423 2.12-33.35 14.08-56.827 47.116-56.827 85.546 0 51.166 41.63 92.78 92.776 92.78 51.146 0 92.776-41.614 92.776-92.78 0-38.43-23.476-71.466-56.831-85.546.035-.75.427-1.374.427-2.12V1654.63c1.635 0 3.23.144 4.865.144 190.597 0 365.145-75.804 506.866-167.726l250.627 259.721v320.405c0 .536.284.982.284 1.51-34.345 13.607-58.785 47-58.785 86.156 0 51.166 41.634 92.78 92.776 92.78 51.15 0 92.784-41.614 92.784-92.78 0-37.669-22.63-70.01-54.948-84.556zm-838.13-1197.21c113.88 0 206.155 92.28 206.155 206.12 0 113.877-92.28 206.121-206.156 206.121-113.806 0-206.085-92.248-206.085-206.12 0-113.845 92.283-206.12 206.085-206.12zM170.821 1144.41c57.86-66.69 250.518-272.116 500.932-377.29-84.859 77.251-138.456 188.25-138.456 312.075 0 233.332 189.176 422.469 422.47 422.469 233.363 0 422.472-189.137 422.472-422.47 0-130.852-59.495-247.75-152.916-325.234 265.794 100.519 472.202 321.026 532.404 390.47-78.782 90.981-407.515 441.545-793.438 441.545-385.386 0-714.582-350.599-793.468-441.565z"
     id="path2"
     style="fill:#000000;fill-opacity:1" />
</svg>
