<?xml version="1.0" standalone="no"?><!-- Generator: Gravit.io --><svg xmlns="http://www.w3.org/2000/svg" xmlns:xlink="http://www.w3.org/1999/xlink" style="isolation:isolate" viewBox="0 0 1764.44 1020.729" width="1764.44" height="1020.729"><defs><clipPath id="_clipPath_LBsnNFr7Efpb3Mbh4dhYn2khYvEQg7FM"><rect width="1764.44" height="1020.729"/></clipPath></defs><g clip-path="url(#_clipPath_LBsnNFr7Efpb3Mbh4dhYn2khYvEQg7FM)"><path d=" M 1449.914 811.253 C 1626.268 683.398 1739.154 542.419 1747.638 531.674 L 1764.44 510.364 L 1747.638 489.051 C 1739.298 478.466 1629.755 341.575 1458.014 215.316 L 1396.849 172.773 C 1253.773 78.572 1076.317 0 882.237 0 C 838.477 0 795.534 4.05 753.657 11.315 L 680.913 27.562 C 516.421 71.642 371.178 162.325 258.723 251.96 L 185.979 313.443 C 84.746 404.138 22.975 481.219 16.797 489.051 L 0 510.365 L 16.797 531.675 C 25.752 543.021 150.85 699.237 344.079 832.097 L 406.451 872.608 C 522.137 943.186 657.684 1000.782 804.628 1016.357 L 877.372 1020.585 C 879.007 1020.585 880.602 1020.729 882.237 1020.729 C 1072.834 1020.729 1247.382 944.925 1389.103 853.003 L 1449.914 811.253 Z  M 873.711 239.029 C 987.591 239.029 1079.866 331.309 1079.866 445.149 C 1079.866 559.026 987.586 651.27 873.71 651.27 C 759.904 651.27 667.625 559.022 667.625 445.15 C 667.625 331.305 759.908 239.03 873.71 239.03 L 873.711 239.029 Z  M 88.765 510.365 C 146.625 443.675 339.283 238.249 589.697 133.075 C 504.838 210.326 451.241 321.325 451.241 445.15 C 451.241 678.482 640.417 867.619 873.711 867.619 C 1107.074 867.619 1296.183 678.482 1296.183 445.149 C 1296.183 314.297 1236.688 197.399 1143.267 119.915 C 1409.061 220.434 1615.469 440.941 1675.671 510.385 C 1596.889 601.366 1268.156 951.93 882.233 951.93 C 496.847 951.93 167.651 601.331 88.765 510.365 L 88.765 510.365 Z " fill="rgb(0,0,0)"/></g></svg>