
        <svg width="3428.355081019217" height="3383.6203714859585" xmlns="http://www.w3.org/2000/svg" xmlns:xlink="http://www.w3.org/1999/xlink" version="1.1">
            <rect fill="#333333" width="3428.355081019217" height="3383.6203714859585"/>
            <g transform="scale(21.417754050960852) translate(10, 10)">
                <defs id="SvgjsDefs1002"/><g id="main_text" rel="mainfill" name="main_text" xmlns:name="mainText_mainfill" fill="#ffffff" transform="translate(-0.008952958509325981, 68.6425727844238)"><path d="M14.896 67.3173875 q-2.095703125 1.869140625 -5.041015625 2.010742188 q-2.860351563 0.11328125 -5.409179688 -0.90625 l-0.02832 -0.02832 l-0.056641 0 q-0.4248046875 -0.1416015625 -1.217773438 -0.79296875 q-0.7646484375 -0.6796875 -1.01953125 -1.01953125 q-0.4248046875 -0.56640625 -0.7504882813 -1.274414063 t-0.66553 -1.3594 q-0.623046875 -1.217773438 -0.6796875 -2.067382813 q-0.0283203125 -0.4248046875 -0.01416015625 -0.9770507813 t0.070801 -1.2603 q0.2548828125 -3.115234375 1.954101563 -5.749023438 q0.1416015625 -0.2265625 0.5380859375 -0.5522460938 t1.0195 -0.66553 q1.302734375 -0.7080078125 2.208984375 -0.9912109375 q0.5947265625 -0.1982421875 1.331054688 -0.283203125 q1.69921875 -0.1982421875 3.483398438 0.01416015625 t3.3135 1.0903 q0.2265625 0.1416015625 0.4956054688 0.33984375 t0.63721 0.48145 q0.7080078125 0.5380859375 0.79296875 1.076171875 q0.0283203125 0.2548828125 -0.169921875 0.509765625 q-0.3115234375 0.396484375 -0.5947265625 0.396484375 q-0.33984375 0 -0.736328125 -0.2690429688 t-0.62305 -0.43896 q-0.4814453125 -0.3115234375 -0.7788085938 -0.509765625 t-0.354 -0.25488 q-1.444335938 -0.7646484375 -3.51171875 -0.7646484375 q-0.4814453125 0 -1.047851563 0.04248046875 t-1.2178 0.15576 l-0.056641 0 l-0.056641 0.02832 q-3.596679688 1.01953125 -4.672851563 4.899414063 q-0.3681640625 1.387695313 -0.1557617188 2.633789063 t0.55225 2.5488 q0.5380859375 1.982421875 1.784179688 2.860351563 t3.1436 1.2178 l0.02832 0 q0.509765625 0.0849609375 0.9487304688 0.0849609375 t0.86377 -0.070801 t0.86377 -0.15576 t0.94873 -0.1416 q2.010742188 -0.2548828125 2.860351563 -1.444335938 l0 -0.02832 q0.623046875 -0.962890625 0.509765625 -2.690429688 q-0.0283203125 -0.90625 -0.6513671875 -1.47265625 q-0.7646484375 -0.7080078125 -2.124023438 -0.6513671875 l-2.2656 0.084961 q-0.3681640625 0.0283203125 -0.6513671875 0.04248046875 t-0.50977 0.01416 q-1.076171875 -0.1416015625 -0.9345703125 -0.962890625 q0.0849609375 -0.56640625 0.79296875 -0.736328125 q1.274414063 -0.11328125 2.506347656 -0.0283203125 t2.5347 0 l1.2178 -0.084961 q0.8212890625 -0.056640625 1.217773438 0.283203125 q0.453125 0.33984375 0.4814453125 1.189453125 q0.0849609375 0.849609375 0.0849609375 1.302734375 q0 0.7646484375 0.0283203125 1.600097656 t-0.11328 1.5718 q-0.1982421875 1.076171875 -1.104492188 2.15234375 z M23.392578125 67.4306875 q-0.0283203125 -1.727539063 -0.01416015625 -3.455078125 t0.01416 -3.4551 l0 -0.99121 q0 -0.7646484375 -0.04248046875 -1.543457031 t0.01416 -1.5435 q0.0283203125 -0.849609375 0.0283203125 -1.685058594 t0.02832 -1.6851 q0 -1.01953125 0.4814453125 -1.416015625 q0.3681640625 -0.283203125 1.302734375 -0.283203125 q0.4814453125 -0.0283203125 0.8354492188 -0.04248046875 t0.60889 -0.01416 q1.104492188 -0.0283203125 2.208984375 0.01416015625 t2.209 0.01416 q0.5947265625 -0.0283203125 1.189453125 -0.04248046875 t1.1611 0.04248 l1.4443 0.084961 q0.2548828125 0.0283203125 0.4389648438 0.0283203125 t0.32568 0.056641 q0.5947265625 0.3115234375 0.56640625 0.8779296875 q-0.0283203125 0.2548828125 -0.1982421875 0.4106445313 t-0.38232 0.24072 t-0.43896 0.11328 t-0.39648 0.02832 q-1.727539063 0 -3.426757813 -0.0849609375 q-0.169921875 -0.0283203125 -0.4248046875 -0.0283203125 l-0.56641 0 l-1.6426 0 q-0.6513671875 0 -1.161132813 0.01416015625 t-0.84961 0.01416 q-0.4814453125 0.0283203125 -0.79296875 0.1274414063 t-0.45313 0.32568 q-0.2265625 0.33984375 -0.169921875 0.849609375 l0 0.39648 t-0.02832 0.31152 q-0.056640625 0.33984375 -0.0849609375 0.7221679688 t0 0.83545 q0 0.79296875 0.623046875 1.331054688 q0.509765625 0.453125 1.840820313 0.3681640625 q0.5947265625 -0.0283203125 1.175292969 -0.09912109375 t1.1753 -0.04248 q0.2548828125 0 0.6655273438 0.01416015625 t0.97705 -0.01416 q1.1328125 -0.0283203125 1.529296875 0.396484375 q0.1416015625 0.1982421875 0.11328125 0.6513671875 q-0.0849609375 0.509765625 -0.79296875 0.623046875 q-0.6513671875 0.11328125 -1.047851563 0.11328125 q-0.509765625 0.0283203125 -1.005371094 0.01416015625 t-1.0054 0.01416 q-0.623046875 0.056640625 -1.274414063 0.0283203125 t-1.3594 -0.084961 q-0.0849609375 0 -0.1982421875 -0.01416015625 t-0.19824 -0.01416 l-0.02832 0 q-0.3115234375 -0.056640625 -0.623046875 0.1416015625 q-0.509765625 0.3115234375 -0.56640625 1.076171875 q-0.056640625 0.736328125 0 1.274414063 q0.0283203125 0.3115234375 0.04248046875 0.56640625 t-0.01416 0.45313 q-0.056640625 0.4248046875 -0.09912109375 0.8354492188 t-0.099121 0.83545 q-0.0849609375 1.076171875 0.283203125 1.614257813 q0.4814453125 0.6513671875 1.670898438 0.6513671875 q0.9345703125 0 1.897460938 -0.04248046875 t1.9258 -0.099121 q0.8779296875 -0.0283203125 1.798339844 0.056640625 t1.8267 0.084961 q0.33984375 0 0.90625 -0.01416015625 t0.87793 0.15576 q0.283203125 0.169921875 0.3115234375 0.509765625 q0.3115234375 1.01953125 -0.8779296875 1.076171875 q-1.869140625 0.0849609375 -3.667480469 0.056640625 t-3.6108 0 q-0.11328125 0 -0.2124023438 0.01416015625 t-0.18408 0.01416 l-1.1187 0 t-0.77881 -0.02832 q-0.1982421875 0 -0.4672851563 -0.01416015625 t-0.60889 -0.04248 q-0.283203125 -0.0283203125 -0.4672851563 -0.056640625 t-0.26904 -0.056641 q-0.849609375 -0.2548828125 -0.849609375 -1.5859375 z M44.491253125 68.5351875 q-0.11328125 0.509765625 -0.8779296875 0.5947265625 q-0.79296875 -0.0283203125 -0.79296875 -0.8779296875 q0 -2.208984375 -0.09912109375 -4.460449219 t0.12744 -4.4604 l0 -0.02832 q0 -0.6513671875 0.01416015625 -1.274414063 t-0.04248 -1.2178 l-0.22656 -2.1523 q-0.0849609375 -0.90625 0.283203125 -1.954101563 q0.283203125 -0.736328125 0.7646484375 -0.8779296875 q0.396484375 -0.0849609375 0.8212890625 0.396484375 q0.396484375 0.4248046875 0.5947265625 0.736328125 q0.3681640625 0.5380859375 0.7504882813 0.962890625 t0.75049 0.79297 q0.3115234375 0.3681640625 0.6372070313 0.6372070313 t0.63721 0.60889 q0.283203125 0.283203125 0.623046875 0.7221679688 t0.73633 1.0337 l1.2461 1.9258 q0.1416015625 0.1982421875 0.2973632813 0.453125 t0.38232 0.59473 l0.02832 0.02832 q0.5947265625 0.79296875 1.24609375 1.500976563 q0.3115234375 0.33984375 0.623046875 0.6372070313 t0.65137 0.60889 q0.3115234375 0.3681640625 0.736328125 0.2265625 q0.6513671875 -0.169921875 0.623046875 -1.302734375 q0 -0.283203125 -0.04248046875 -0.5947265625 t-0.04248 -0.62305 q-0.0283203125 -0.2265625 -0.056640625 -0.4389648438 t-0.02832 -0.46729 q0 -0.11328125 -0.01416015625 -0.2548828125 t-0.01416 -0.31152 q0.11328125 -2.4921875 -0.169921875 -4.64453125 q-0.0283203125 -0.1416015625 -0.0283203125 -0.4672851563 t0.056641 -0.83545 q0.0283203125 -0.623046875 0.169921875 -1.331054688 q0.0849609375 -1.01953125 0.90625 -1.01953125 q0.90625 0 0.90625 1.076171875 q0.0283203125 0.8779296875 0.07080078125 1.770019531 t0.04248 1.77 q0.0283203125 1.302734375 -0.056640625 2.60546875 t-0.02832 2.6055 q0.056640625 0.8779296875 0.04248046875 1.727539063 t-0.04248 1.6992 q0 0.4814453125 0.01416015625 0.9487304688 t0.01416 0.89209 l0 1.1328 q-0.0283203125 0.169921875 -0.04248046875 0.33984375 t-0.01416 0.31152 q-0.0283203125 0.0283203125 -0.0283203125 0.056640625 t-0.02832 0.02832 q-0.3115234375 0.4248046875 -0.962890625 0.4248046875 q-0.7646484375 0.056640625 -1.161132813 -0.4814453125 q-0.4248046875 -0.5380859375 -0.7788085938 -1.161132813 t-0.77881 -1.2178 q-0.509765625 -0.6796875 -1.118652344 -1.458496094 t-1.3452 -1.6567 q-0.283203125 -0.3115234375 -0.79296875 -1.1328125 l-0.99121 -1.5859 q-0.3681640625 -0.56640625 -0.736328125 -1.146972656 t-0.76465 -1.1187 q-0.169921875 -0.1982421875 -0.3681640625 -0.4389648438 t-0.4248 -0.41064 t-0.50977 -0.25488 t-0.56641 0 q-0.7646484375 0.2265625 -0.7080078125 1.557617188 q0.0283203125 0.962890625 0.04248046875 1.8125 t0.070801 1.5859 q0.056640625 0.5947265625 -0.01416015625 1.189453125 t-0.070801 1.1611 l0 2.209 q0 0.7080078125 -0.04248046875 1.274414063 t-0.099121 1.0195 z M77.6256328125 51.4016875 q0.849609375 -0.0283203125 0.849609375 0.849609375 q0 1.189453125 -0.01416015625 2.322265625 t-0.15576 2.3223 q-0.1416015625 1.104492188 -0.01416015625 2.180664063 t0.12744 2.1523 l0 0.19824 l-0.11328 1.9258 q-0.056640625 0.623046875 -0.1416015625 1.104492188 t-0.1416 0.79297 l-0.056641 0.11328 l-0.056641 0.19824 l0 0.02832 q-0.0849609375 0.33984375 -0.3115234375 0.6938476563 t-0.49561 0.67969 t-0.58057 0.60889 t-0.56641 0.50977 q-0.4814453125 0.4248046875 -1.047851563 0.6796875 t-1.1895 0.36816 t-1.2603 0.15576 t-1.2319 0.04248 q-1.047851563 0 -2.0390625 -0.2407226563 t-1.9258 -0.80713 q-0.056640625 -0.056640625 -0.056640625 -0.0849609375 q-0.0849609375 -0.0283203125 -0.1416015625 -0.0849609375 l-0.11328 -0.11328 q-0.0849609375 -0.056640625 -0.1416015625 -0.09912109375 t-0.11328 -0.12744 q-1.416015625 -1.500976563 -1.8125 -3.73828125 q-0.169921875 -1.104492188 -0.2265625 -2.166503906 t0 -2.0815 q0.0283203125 -0.2548828125 0.056640625 -0.4956054688 t0.056641 -0.49561 q0.0283203125 -0.33984375 0.01416015625 -0.6513671875 t-0.04248 -0.59473 q-0.169921875 -2.237304688 -0.0849609375 -5.295898438 q0.0283203125 -0.5947265625 0.736328125 -0.849609375 q0.56640625 -0.169921875 0.962890625 0.11328125 q0.2265625 0.2265625 0.2265625 0.509765625 q0.0283203125 0.396484375 0.01416015625 1.01953125 t-0.04248 1.4443 q0 0.7080078125 -0.056640625 1.416015625 t-0.056641 1.3877 q0 0.849609375 -0.056640625 1.656738281 t-0.056641 1.6284 q0 1.5859375 0.509765625 3.568359375 q0.056640625 0.2548828125 0.1274414063 0.4672851563 t0.12744 0.43896 q0.4248046875 1.331054688 1.302734375 1.840820313 q0.6513671875 0.396484375 2.435546875 0.509765625 q0.2265625 0.0283203125 0.453125 0.07080078125 t0.48145 0.04248 l0.02832 0 l0.02832 0 q1.359375 0 2.37890625 -0.4814453125 t1.7275 -1.6709 q0.56640625 -0.962890625 0.56640625 -2.9453125 l0 -0.63721 t0.02832 -0.43896 q0.283203125 -2.520507813 -0.056640625 -5.267578125 q-0.056640625 -0.3681640625 0.0849609375 -1.359375 q0.056640625 -0.396484375 0.0849609375 -0.7080078125 t0.02832 -0.53809 q0 -1.217773438 0.169921875 -1.642578125 q0.2265625 -0.4248046875 0.79296875 -0.4248046875 z M97.195390625 67.6571875 q0.33984375 0.2265625 0.33984375 0.623046875 q0.0283203125 0.9345703125 -1.104492188 0.9345703125 q-2.0390625 0 -4.078125 -0.056640625 t-4.0781 0.084961 q-1.614257813 0.0849609375 -1.954101563 -0.8779296875 q-0.169921875 -0.4248046875 -0.169921875 -1.331054688 q0.0283203125 -0.4814453125 0.04248046875 -0.8354492188 t0.01416 -0.60889 q0.0283203125 -0.623046875 0.07080078125 -1.288574219 t0.01416 -1.3169 q-0.056640625 -1.359375 -0.11328125 -2.647949219 t-0.02832 -2.6479 q0.0283203125 -0.6513671875 0.056640625 -1.288574219 t0.02832 -1.3169 q0.0283203125 -0.8212890625 0.01416015625 -1.515136719 t-0.070801 -1.2603 q-0.056640625 -0.7646484375 0.7080078125 -0.90625 q1.104492188 -0.2265625 1.189453125 1.302734375 q0.056640625 0.6513671875 0.0849609375 1.260253906 t0.084961 1.1753 l0 0.73633 l-0.11328 1.0762 q-0.056640625 0.453125 -0.09912109375 0.90625 t-0.070801 0.87793 q-0.056640625 1.076171875 -0.056640625 1.883300781 t0.02832 1.3452 q0.056640625 0.6796875 0.07080078125 1.416015625 t-0.04248 1.5576 q-0.056640625 1.24609375 0.33984375 1.642578125 q0.3115234375 0.3681640625 1.331054688 0.453125 q0.509765625 0.056640625 1.005371094 0.0849609375 t1.0054 0.084961 q0.7646484375 0.0849609375 1.557617188 0.01416015625 t1.5859 0.04248 q0.509765625 0.056640625 1.231933594 0.09912109375 t1.1753 0.29736 z M119.68202343749999 68.1952875 q0 0.7080078125 -0.5947265625 0.90625 q-0.509765625 0.2265625 -0.90625 -0.33984375 q-0.1982421875 -0.283203125 -0.3256835938 -0.509765625 t-0.2124 -0.4248 q-0.396484375 -0.849609375 -0.7080078125 -1.486816406 t-0.62305 -1.0337 q-0.6796875 -0.9345703125 -1.500976563 -1.189453125 q-0.7080078125 -0.2265625 -2.265625 -0.056640625 q-0.90625 0.11328125 -1.713378906 0.1416015625 t-1.5435 -0.02832 q-1.642578125 -0.11328125 -2.435546875 1.047851563 l-0.056641 0.084961 l-0.02832 0.056641 q-0.283203125 0.56640625 -0.4672851563 1.118652344 t-0.43896 1.062 l-0.59473 0.93457 q-0.396484375 0.5947265625 -0.8212890625 0.6513671875 q-0.1982421875 0.0849609375 -0.56640625 -0.2265625 q-0.169921875 -0.169921875 -0.2124023438 -0.4106445313 t0 -0.49561 t0.1416 -0.52393 t0.18408 -0.46729 l0.67969 -1.416 q0.9912109375 -2.0390625 1.854980469 -4.134765625 t1.8267 -4.2197 q0.169921875 -0.3681640625 0.2973632813 -0.6938476563 t0.26904 -0.63721 q0.3115234375 -0.7646484375 0.623046875 -1.543457031 t0.70801 -1.5435 l0.4248 -0.65137 q0.3115234375 -0.509765625 0.5947265625 -0.5380859375 q0.283203125 -0.056640625 0.736328125 0.4814453125 q0.4814453125 0.56640625 0.9204101563 1.331054688 t0.75049 1.4443 q0.9912109375 2.095703125 1.854980469 4.205566406 t1.855 4.1489 q0.3115234375 0.623046875 0.6088867188 1.260253906 t0.63721 1.2319 q0.169921875 0.4248046875 0.3540039063 0.8212890625 t0.354 0.79297 q0.1416015625 0.3115234375 0.2265625 0.509765625 t0.11328 0.33984 z M114.0740234375 60.2655875 q-0.283203125 -0.6796875 -0.5522460938 -1.401855469 t-0.63721 -1.4019 q-0.6796875 -1.302734375 -1.500976563 -1.24609375 q-0.3115234375 0 -0.5522460938 0.169921875 t-0.41064 0.41064 t-0.31152 0.52393 t-0.22656 0.53809 q-0.3115234375 0.849609375 -0.5947265625 1.755859375 t-0.53809 1.7559 q-0.1982421875 0.623046875 0.056640625 0.9345703125 q0.169921875 0.283203125 0.8779296875 0.33984375 q0.623046875 0.0283203125 1.104492188 0.04248046875 t0.79297 -0.01416 q0.623046875 0 1.642578125 -0.169921875 q1.047851563 -0.169921875 1.24609375 -0.9345703125 q0.0849609375 -0.453125 -0.11328125 -0.7646484375 q-0.056640625 -0.11328125 -0.1557617188 -0.2690429688 t-0.12744 -0.26904 z M137.9483984375 52.449687499999996 q0.5947265625 0.5947265625 0.9487304688 1.302734375 l0.72217 1.4443 q0.396484375 0.8212890625 0.2407226563 1.656738281 t-0.92041 1.6284 q-0.5947265625 0.623046875 -1.982421875 0.9912109375 q-0.509765625 0.1416015625 -1.090332031 0.2973632813 t-0.80713 0.66553 q-0.169921875 0.4814453125 0.0849609375 0.9912109375 q0.283203125 0.5380859375 0.453125 0.8779296875 t0.2832 0.50977 q0.1416015625 0.283203125 0.3681640625 0.6372070313 t0.53809 0.80713 q0.6513671875 0.90625 1.373535156 1.69921875 t1.4585 1.5293 l0.1416 0.1416 q0.623046875 0.623046875 0.0283203125 1.217773438 q-0.6513671875 0.6513671875 -1.24609375 0.0283203125 l-0.84961 -0.84961 t-0.67969 -0.73633 q-0.6796875 -0.849609375 -1.274414063 -1.784179688 q-0.4248046875 -0.623046875 -0.8637695313 -1.203613281 t-0.83545 -1.2603 q-1.1328125 -2.0390625 -2.803710938 -2.690429688 q-1.784179688 -0.6513671875 -2.60546875 0.509765625 q-0.2548828125 0.396484375 -0.2548828125 0.8779296875 l0 6.1455 l0 0.36816 q0 0.849609375 -0.8779296875 0.8779296875 q-0.8779296875 -0.0283203125 -0.8779296875 -1.076171875 q0 -0.6513671875 0.04248046875 -1.345214844 t0.070801 -1.4868 q0.0283203125 -0.5380859375 -0.01416015625 -1.104492188 t-0.04248 -1.1045 t0.02832 -1.0762 t0.02832 -1.0762 q0.0283203125 -1.274414063 -0.0849609375 -2.633789063 q0 -0.9345703125 0.04248046875 -1.897460938 t0.01416 -1.9541 q-0.0283203125 -0.509765625 -0.0283203125 -1.146972656 t0.16992 -1.147 q0.509765625 -0.6796875 2.407226563 -0.6796875 l0.87793 0 q1.01953125 0 2.053222656 0.0849609375 t2.0532 0.02832 q2.350585938 -0.11328125 3.709960938 0.9345703125 z M129.9901984375 58.5666875 q1.076171875 0.0283203125 1.897460938 0.0283203125 t1.3877 -0.056641 q0.5380859375 -0.056640625 1.203613281 -0.1416015625 t1.4585 -0.22656 q1.614257813 -0.33984375 2.095703125 -1.500976563 q0.1982421875 -0.4248046875 0.1416015625 -0.9345703125 t-0.32568 -0.93457 t-0.67969 -0.72217 t-0.89209 -0.50977 t-0.93457 -0.29736 q-1.189453125 -0.2265625 -2.364746094 -0.1840820313 t-2.3647 -0.01416 q-0.2265625 0 -0.4389648438 -0.01416015625 t-0.43896 -0.01416 q-0.5947265625 -0.0283203125 -0.90625 0.3115234375 q-0.2548828125 0.283203125 -0.1982421875 0.79296875 q0.0283203125 0.1416015625 0.0283203125 0.5947265625 q-0.0283203125 0.4248046875 -0.09912109375 0.8212890625 t-0.099121 0.79297 q-0.169921875 1.104492188 0.2548828125 1.642578125 q0.3681640625 0.509765625 1.274414063 0.56640625 z"/></g><g id="SvgjsG1009" rel="mainfill" name="symbol" xmlns:name="symbol_mainfill" fill="#ffffff" transform="translate(-4.338860540604763, -1.3874699572820204) scale(0.18129752769019458)"><path xmlns="http://www.w3.org/2000/svg" fill="" d="M634.152,540.821c0.026-0.275,0.164-0.518,0.164-0.802v-90.08l-67.619-70.073  c45.417-32.927,74.489-69.234,76.674-72.001l4.327-5.488l-4.327-5.489c-2.148-2.726-30.359-37.98-74.588-70.496l61.553-56.655  V53.619c8.673-3.59,14.792-12.121,14.792-22.073c0-13.176-10.721-23.893-23.893-23.893c-13.173,0-23.894,10.717-23.894,23.893  c0,9.743,5.882,18.112,14.26,21.827v108.151l-58.57,53.912c-36.847-24.26-82.548-44.495-132.53-44.495  c-11.27,0-22.329,1.043-33.114,2.914V88.823l22.293-33.406c0.064,0.004,0.128,0.023,0.201,0.023  c13.172,0,23.893-10.717,23.893-23.894c0-13.176-10.721-23.893-23.893-23.893s-23.893,10.717-23.893,23.893  c0,6.221,2.442,11.842,6.348,16.095l-23.683,35.502v94.896c-42.362,11.352-79.767,34.706-108.728,57.79V131.043h-47.787V53.509  c8.517-3.654,14.508-12.121,14.508-21.963c0-13.176-10.721-23.893-23.893-23.893c-13.173,0-23.894,10.717-23.894,23.893  c0,9.861,6,18.336,14.545,21.981v96.251h47.787v101.885c-26.071,23.357-41.979,43.208-43.57,45.225l-4.326,5.489l4.326,5.488  c2.306,2.922,34.523,43.153,84.286,77.369l-95.144,95.152v60.191c-8.571,3.632-14.6,12.135-14.6,22.019  c0,13.177,10.721,23.894,23.894,23.894s23.894-10.717,23.894-23.894c0-9.824-5.964-18.272-14.453-21.94v-52.512l92.472-92.477  c29.793,18.176,64.701,33.009,102.544,37.02V540.02c0,0.192,0.101,0.353,0.109,0.546c-8.589,3.626-14.635,12.134-14.635,22.031  c0,13.177,10.721,23.894,23.893,23.894s23.893-10.717,23.893-23.894c0-9.897-6.046-18.405-14.636-22.031  c0.009-0.193,0.11-0.354,0.11-0.546V433.776c0.421,0,0.832,0.037,1.253,0.037c49.085,0,94.037-19.522,130.535-43.195l64.545,66.887  v82.515c0,0.138,0.073,0.253,0.073,0.389c-8.845,3.504-15.139,12.104-15.139,22.188c0,13.177,10.722,23.894,23.893,23.894  c13.173,0,23.895-10.717,23.895-23.894C648.302,552.896,642.475,544.567,634.152,540.821z M418.305,232.499  c29.328,0,53.092,23.765,53.092,53.083c0,29.327-23.765,53.083-53.092,53.083c-29.309,0-53.074-23.757-53.074-53.083  C365.232,256.263,388.997,232.499,418.305,232.499z M216.155,302.377c14.901-17.175,64.517-70.079,129.007-97.165  c-21.854,19.895-35.657,48.481-35.657,80.37c0,60.091,48.719,108.8,108.8,108.8c60.099,0,108.801-48.709,108.801-108.8  c0-33.699-15.322-63.804-39.381-83.759c68.451,25.887,121.608,82.675,137.112,100.559  c-20.289,23.431-104.949,113.713-204.337,113.713C321.25,416.095,236.471,325.804,216.155,302.377z"/></g>
            </g>
        </svg>
    