<?xml version="1.0" encoding="UTF-8" standalone="no"?>
<svg
   xmlns:dc="http://purl.org/dc/elements/1.1/"
   xmlns:cc="http://creativecommons.org/ns#"
   xmlns:rdf="http://www.w3.org/1999/02/22-rdf-syntax-ns#"
   xmlns:svg="http://www.w3.org/2000/svg"
   xmlns="http://www.w3.org/2000/svg"
   xmlns:sodipodi="http://sodipodi.sourceforge.net/DTD/sodipodi-0.dtd"
   xmlns:inkscape="http://www.inkscape.org/namespaces/inkscape"
   width="3000.0002"
   height="2955.2651"
   version="1.1"
   id="svg11"
   sodipodi:docname="dark_logo_transparent.svg"
   inkscape:export-filename="/mnt/data/projects/genular/simon-frontend/src/app/assets/logo/svg/dark_logo_transparent_gold.png"
   inkscape:export-xdpi="96"
   inkscape:export-ydpi="96"
   inkscape:version="0.92.2 2405546, 2018-03-11">
  <metadata
     id="metadata17">
    <rdf:RDF>
      <cc:Work
         rdf:about="">
        <dc:format>image/svg+xml</dc:format>
        <dc:type
           rdf:resource="http://purl.org/dc/dcmitype/StillImage" />
        <dc:title></dc:title>
      </cc:Work>
    </rdf:RDF>
  </metadata>
  <defs
     id="defs15" />
  <sodipodi:namedview
     pagecolor="#ffffff"
     bordercolor="#666666"
     borderopacity="1"
     objecttolerance="10"
     gridtolerance="10"
     guidetolerance="10"
     inkscape:pageopacity="0"
     inkscape:pageshadow="2"
     inkscape:window-width="1920"
     inkscape:window-height="1056"
     id="namedview13"
     showgrid="false"
     fit-margin-top="0"
     fit-margin-left="0"
     fit-margin-right="0"
     fit-margin-bottom="0"
     inkscape:zoom="0.13949555"
     inkscape:cx="665.57738"
     inkscape:cy="1352.4878"
     inkscape:window-x="1920"
     inkscape:window-y="0"
     inkscape:window-maximized="1"
     inkscape:current-layer="svg11" />
  <g
     transform="matrix(21.417754,0,0,21.417754,-1.5988586e-6,-9.8360533e-7)"
     id="g9"
     style="fill:#d4af37;fill-opacity:1">
    <defs
       id="SvgjsDefs1002" />
    <g
       id="main_text"
       rel="mainfill"
       name="main_text"
       transform="translate(-0.00895296,68.642573)"
       style="fill:#d4af37;fill-opacity:1">
      <path
         d="M 14.896,67.317387 Q 12.800297,69.186528 9.8549844,69.32813 6.9946328,69.441411 4.4458047,68.42188 l -0.02832,-0.02832 H 4.3608437 Q 3.936039,68.251958 3.1430702,67.600591 2.3784218,66.920903 2.123539,66.58106 1.6987343,66.014653 1.3730507,65.306646 1.0473671,64.598638 0.70752072,63.947246 0.08447384,62.729472 0.02783322,61.879863 -4.870948e-4,61.455058 0.01367306,60.902812 q 0.01416016,-0.552246 0.070801,-1.2603 0.25488281,-3.115234 1.95410154,-5.749023 0.1416016,-0.226563 0.538086,-0.552247 0.3964843,-0.325683 1.0195,-0.66553 1.3027343,-0.708007 2.2089843,-0.99121 0.5947266,-0.198243 1.3310547,-0.283204 1.6992188,-0.198242 3.4833984,0.01416 1.78418,0.212402 3.3135,1.0903 0.226563,0.141601 0.495606,0.339843 0.269043,0.198243 0.63721,0.48145 0.708007,0.538086 0.792968,1.076172 0.02832,0.254883 -0.169922,0.509766 -0.311523,0.396484 -0.594726,0.396484 -0.339844,0 -0.736328,-0.269043 -0.396485,-0.269043 -0.62305,-0.43896 -0.481446,-0.311523 -0.778809,-0.509765 -0.297363,-0.198243 -0.354,-0.25488 -1.444336,-0.764649 -3.5117186,-0.764649 -0.4814453,0 -1.0478516,0.04248 -0.5664062,0.04248 -1.2178,0.15576 h -0.056641 l -0.056641,0.02832 q -3.5966797,1.019531 -4.6728516,4.899414 -0.368164,1.387695 -0.1557617,2.633789 0.2124024,1.246094 0.55225,2.5488 0.538086,1.982422 1.7841797,2.860351 1.2460938,0.87793 3.1436,1.2178 h 0.02832 q 0.5097656,0.08496 0.9487305,0.08496 0.4389648,0 0.86377,-0.0708 0.4248051,-0.0708 0.8637703,-0.15576 0.438965,-0.08496 0.94873,-0.1416 2.010742,-0.254883 2.860351,-1.444336 v -0.02832 q 0.623047,-0.96289 0.509766,-2.690429 -0.02832,-0.90625 -0.651367,-1.472657 -0.764649,-0.708007 -2.124024,-0.651367 l -2.2655998,0.08496 q -0.368164,0.02832 -0.6513671,0.04248 -0.2832032,0.01416 -0.50977,0.01416 -1.0761719,-0.141602 -0.9345704,-0.962891 0.084961,-0.566406 0.7929688,-0.736328 1.2744141,-0.113281 2.5063475,-0.02832 1.231934,0.08496 2.5347,0 l 1.2178,-0.08496 q 0.821289,-0.05664 1.217774,0.283203 0.453125,0.339843 0.481445,1.189453 0.08496,0.849609 0.08496,1.302734 0,0.764649 0.02832,1.600098 0.02832,0.835449 -0.11328,1.5718 -0.198242,1.076172 -1.104492,2.152344 z m 8.496578,0.113301 q -0.02832,-1.72754 -0.01416,-3.455079 0.01416,-1.727539 0.01416,-3.4551 v -0.99121 q 0,-0.764648 -0.04248,-1.543457 -0.04248,-0.778808 0.01416,-1.5435 0.02832,-0.849609 0.02832,-1.685058 0,-0.835449 0.02832,-1.6851 0,-1.019532 0.481445,-1.416016 0.368164,-0.283203 1.302735,-0.283203 0.481445,-0.02832 0.835449,-0.04248 0.354004,-0.01416 0.60889,-0.01416 1.104492,-0.02832 2.208984,0.01416 1.104492,0.04248 2.209,0.01416 0.594727,-0.02832 1.189453,-0.04248 0.594727,-0.01416 1.1611,0.04248 l 1.4443,0.08496 q 0.254883,0.02832 0.438965,0.02832 0.184082,0 0.32568,0.05664 0.594727,0.311523 0.566406,0.877929 -0.02832,0.254883 -0.198242,0.410645 -0.169922,0.155761 -0.38232,0.24072 -0.212398,0.08496 -0.43896,0.11328 -0.226562,0.02832 -0.39648,0.02832 -1.727539,0 -3.426758,-0.08496 -0.169922,-0.02832 -0.424804,-0.02832 h -0.56641 -1.6426 q -0.651368,0 -1.161133,0.01416 -0.509766,0.01416 -0.84961,0.01416 -0.481446,0.02832 -0.792969,0.127441 -0.311523,0.09912 -0.45313,0.32568 -0.226562,0.339844 -0.169922,0.849609 v 0.39648 q 0,0 -0.02832,0.31152 -0.05664,0.339844 -0.08496,0.722168 -0.02832,0.382325 0,0.83545 0,0.792969 0.623047,1.331055 0.509766,0.453125 1.84082,0.368164 0.594727,-0.02832 1.175293,-0.09912 0.580567,-0.0708 1.1753,-0.04248 0.254883,0 0.665528,0.01416 0.410644,0.01416 0.97705,-0.01416 1.132812,-0.02832 1.529297,0.396485 0.141601,0.198242 0.113281,0.651367 -0.08496,0.509765 -0.792969,0.623047 -0.651367,0.113281 -1.047851,0.113281 -0.509766,0.02832 -1.005372,0.01416 -0.495605,-0.01416 -1.0054,0.01416 -0.623046,0.05664 -1.274414,0.02832 -0.651367,-0.02832 -1.3594,-0.08496 -0.08496,0 -0.198242,-0.01416 -0.113281,-0.01416 -0.19824,-0.01416 h -0.02832 q -0.311523,-0.05664 -0.623047,0.141602 -0.509765,0.311523 -0.566406,1.076172 -0.05664,0.736328 0,1.274414 0.02832,0.311523 0.04248,0.566406 0.01416,0.254883 -0.01416,0.45313 -0.05664,0.424805 -0.09912,0.835449 -0.04248,0.410645 -0.09912,0.83545 -0.08496,1.076172 0.283204,1.614258 0.481445,0.651367 1.670898,0.651367 0.93457,0 1.897461,-0.04248 0.962891,-0.04248 1.9258,-0.09912 0.87793,-0.02832 1.79834,0.05664 0.92041,0.08496 1.8267,0.08496 0.339844,0 0.90625,-0.01416 0.566406,-0.01416 0.87793,0.15576 0.283203,0.169922 0.311523,0.509766 0.311524,1.019531 -0.877929,1.076172 -1.869141,0.08496 -3.667481,0.05664 -1.79834,-0.02832 -3.6108,0 -0.113281,0 -0.212402,0.01416 -0.09912,0.01416 -0.18408,0.01416 h -1.1187 q 0,0 -0.77881,-0.02832 -0.198242,0 -0.467285,-0.01416 -0.269043,-0.01416 -0.60889,-0.04248 -0.283204,-0.02832 -0.467286,-0.05664 -0.184082,-0.02832 -0.26904,-0.05664 -0.849609,-0.254883 -0.849609,-1.585938 z m 21.098675,1.1045 q -0.113281,0.509765 -0.87793,0.594726 -0.792968,-0.02832 -0.792968,-0.87793 0,-2.208984 -0.09912,-4.460449 -0.09912,-2.251465 0.12744,-4.4604 v -0.02832 q 0,-0.651367 0.01416,-1.274414 0.01416,-0.623047 -0.04248,-1.2178 l -0.22656,-2.1523 q -0.08496,-0.90625 0.283203,-1.954101 0.283203,-0.736329 0.764648,-0.87793 0.396485,-0.08496 0.821289,0.396484 0.396485,0.424805 0.594727,0.736328 0.368164,0.538086 0.750488,0.962891 0.382324,0.424805 0.75049,0.79297 0.311524,0.368164 0.637207,0.637207 0.325684,0.269043 0.63721,0.60889 0.283203,0.283203 0.623047,0.722168 0.339844,0.438965 0.73633,1.0337 l 1.2461,1.9258 q 0.141602,0.198242 0.297363,0.453125 0.155762,0.254883 0.38232,0.59473 l 0.02832,0.02832 q 0.594727,0.792969 1.246094,1.500977 0.311524,0.339843 0.623047,0.637207 0.311523,0.297363 0.65137,0.60889 0.311523,0.368164 0.736328,0.226562 0.651367,-0.169922 0.623047,-1.302734 0,-0.283203 -0.04248,-0.594727 -0.04248,-0.311523 -0.04248,-0.62305 -0.02832,-0.226562 -0.05664,-0.438965 -0.02832,-0.212402 -0.02832,-0.46729 0,-0.113281 -0.01416,-0.254883 -0.01416,-0.141601 -0.01416,-0.31152 0.113281,-2.492187 -0.169922,-4.644531 -0.02832,-0.141601 -0.02832,-0.467285 0,-0.325684 0.05664,-0.83545 0.02832,-0.623047 0.169921,-1.331055 0.08496,-1.019531 0.90625,-1.019531 0.90625,0 0.90625,1.076172 0.02832,0.87793 0.0708,1.77002 0.04248,0.892089 0.04248,1.77 0.02832,1.302734 -0.05664,2.605468 -0.08496,1.302735 -0.02832,2.6055 0.05664,0.87793 0.04248,1.727539 -0.01416,0.84961 -0.04248,1.6992 0,0.481446 0.01416,0.948731 0.01416,0.467285 0.01416,0.89209 v 1.1328 q -0.02832,0.169922 -0.04248,0.339844 -0.01416,0.169921 -0.01416,0.31152 -0.02832,0.02832 -0.02832,0.05664 0,0.02832 -0.02832,0.02832 -0.311523,0.424805 -0.96289,0.424805 -0.764649,0.05664 -1.161133,-0.481445 -0.424805,-0.538086 -0.778809,-1.161133 -0.354003,-0.623047 -0.77881,-1.2178 -0.509765,-0.679688 -1.118652,-1.458496 -0.608887,-0.778809 -1.3452,-1.6567 -0.283203,-0.311524 -0.792969,-1.132813 l -0.99121,-1.5859 q -0.368164,-0.566406 -0.736328,-1.146973 -0.368164,-0.580566 -0.76465,-1.1187 -0.169922,-0.198242 -0.368164,-0.438964 -0.198242,-0.240723 -0.4248,-0.41064 -0.226558,-0.169918 -0.50977,-0.25488 -0.283212,-0.08496 -0.56641,0 -0.764648,0.226562 -0.708008,1.557617 0.02832,0.96289 0.04248,1.8125 0.01416,0.849609 0.0708,1.5859 0.05664,0.594726 -0.01416,1.189453 -0.0708,0.594727 -0.0708,1.1611 v 2.209 q 0,0.708008 -0.04248,1.274414 -0.04248,0.566406 -0.09912,1.0195 z m 33.13438,-17.1335 q 0.849609,-0.02832 0.849609,0.849609 0,1.189453 -0.01416,2.322266 -0.01416,1.132812 -0.15576,2.322299 -0.141602,1.104493 -0.01416,2.180665 0.127441,1.076171 0.12744,2.1523 v 0.19824 l -0.11328,1.9258 q -0.05664,0.623046 -0.141602,1.104492 -0.08496,0.481445 -0.1416,0.79297 l -0.05664,0.11328 -0.05664,0.19824 v 0.02832 q -0.08496,0.339844 -0.311523,0.693847 -0.226563,0.354004 -0.49561,0.67969 -0.269048,0.325687 -0.58057,0.60889 -0.311523,0.283204 -0.56641,0.50977 -0.481445,0.424805 -1.047852,0.679688 -0.566406,0.254883 -1.1895,0.36816 -0.623093,0.113277 -1.2603,0.15576 -0.637206,0.04248 -1.2319,0.04248 -1.047851,0 -2.039062,-0.240723 -0.991211,-0.240722 -1.9258,-0.80713 -0.05664,-0.05664 -0.05664,-0.08496 -0.08496,-0.02832 -0.141601,-0.08496 l -0.11328,-0.11328 q -0.08496,-0.05664 -0.141602,-0.09912 -0.05664,-0.04248 -0.11328,-0.12744 -1.416016,-1.500976 -1.8125,-3.738281 -0.169922,-1.104492 -0.226562,-2.166504 -0.05664,-1.062012 0,-2.0815 0.02832,-0.254883 0.05664,-0.495605 0.02832,-0.240723 0.05664,-0.49561 0.02832,-0.339844 0.01416,-0.651368 -0.01416,-0.311523 -0.04248,-0.59473 -0.169922,-2.237304 -0.08496,-5.295898 0.02832,-0.594727 0.736329,-0.849609 0.566406,-0.169922 0.96289,0.113281 0.226563,0.226562 0.226563,0.509766 0.02832,0.396484 0.01416,1.019531 -0.01416,0.623047 -0.04248,1.4443 0,0.708008 -0.05664,1.416015 -0.05664,0.708008 -0.05664,1.3877 0,0.84961 -0.05664,1.656739 -0.05664,0.807129 -0.05664,1.6284 0,1.585937 0.509765,3.568359 0.05664,0.254883 0.127442,0.467285 0.0708,0.212403 0.12744,0.43896 0.424804,1.331055 1.302734,1.840821 0.651367,0.396484 2.435547,0.509765 0.226562,0.02832 0.453125,0.0708 0.226562,0.04248 0.48145,0.04248 h 0.02832 0.02832 q 1.359375,0 2.378906,-0.481445 1.019531,-0.481446 1.7275,-1.6709 0.566406,-0.962891 0.566406,-2.945313 v -0.63721 q 0,0 0.02832,-0.43896 0.283203,-2.520508 -0.05664,-5.267578 -0.05664,-0.368164 0.08496,-1.359375 0.05664,-0.396484 0.08496,-0.708008 0.02832,-0.311523 0.02832,-0.53809 0,-1.217773 0.169921,-1.642578 0.226563,-0.424805 0.792969,-0.424805 z m 19.569758,16.2555 q 0.339843,0.226562 0.339843,0.623046 0.02832,0.934571 -1.104492,0.934571 -2.039062,0 -4.078125,-0.05664 -2.039062,-0.05664 -4.0781,0.08496 -1.614258,0.08496 -1.954101,-0.87793 -0.169922,-0.424804 -0.169922,-1.331054 0.02832,-0.481446 0.04248,-0.83545 0.01416,-0.354003 0.01416,-0.60889 0.02832,-0.623046 0.0708,-1.288574 0.04248,-0.665527 0.01416,-1.3169 -0.05664,-1.359375 -0.113281,-2.647949 -0.05664,-1.288574 -0.02832,-2.6479 0.02832,-0.651367 0.05664,-1.288574 0.02832,-0.637207 0.02832,-1.3169 0.02832,-0.821289 0.01416,-1.515137 -0.01416,-0.693848 -0.0708,-1.2603 -0.05664,-0.764648 0.708007,-0.90625 1.104493,-0.226562 1.189453,1.302734 0.05664,0.651368 0.08496,1.260254 0.02832,0.608887 0.08496,1.1753 v 0.73633 l -0.11328,1.0762 q -0.05664,0.453125 -0.09912,0.90625 -0.04248,0.453125 -0.0708,0.87793 -0.05664,1.076172 -0.05664,1.883301 0,0.807129 0.02832,1.3452 0.05664,0.679688 0.0708,1.416016 0.01416,0.736328 -0.04248,1.5576 -0.05664,1.246094 0.339844,1.642578 0.311524,0.368164 1.331055,0.453125 0.509766,0.05664 1.005371,0.08496 0.495605,0.02832 1.0054,0.08496 0.764648,0.08496 1.557617,0.01416 0.792969,-0.0708 1.5859,0.04248 0.509766,0.05664 1.231934,0.09912 0.722168,0.04248 1.1753,0.29736 z m 22.486629,0.5381 q 0,0.708007 -0.59472,0.90625 -0.50977,0.226562 -0.90625,-0.339844 -0.19825,-0.283203 -0.32569,-0.509766 -0.12744,-0.226562 -0.2124,-0.4248 -0.39648,-0.849609 -0.708,-1.486816 -0.31153,-0.637207 -0.62305,-1.0337 -0.67969,-0.934571 -1.50098,-1.189453 -0.70801,-0.226563 -2.26563,-0.05664 -0.90625,0.113281 -1.71338,0.141602 -0.80712,0.02832 -1.5435,-0.02832 -1.64257,-0.113282 -2.43554,1.047851 l -0.0566,0.08496 -0.0283,0.05664 q -0.28321,0.566406 -0.46729,1.118652 -0.18408,0.552247 -0.43896,1.062 l -0.59473,0.93457 q -0.39648,0.594727 -0.82129,0.651368 -0.19824,0.08496 -0.5664,-0.226563 -0.16993,-0.169922 -0.21241,-0.410644 -0.0425,-0.240723 0,-0.49561 0.0425,-0.254888 0.1416,-0.52393 0.0991,-0.269043 0.18408,-0.46729 l 0.67969,-1.416 q 0.99122,-2.039063 1.85498,-4.134766 0.86377,-2.095703 1.8267,-4.2197 0.16993,-0.368164 0.29737,-0.693848 0.12744,-0.325683 0.26904,-0.63721 0.31152,-0.764648 0.62304,-1.543457 0.31153,-0.778808 0.70801,-1.5435 l 0.4248,-0.65137 q 0.31153,-0.509765 0.59473,-0.538086 0.2832,-0.05664 0.73633,0.481446 0.48144,0.566406 0.92041,1.331054 0.43896,0.764649 0.75049,1.4443 0.99121,2.095703 1.85498,4.205567 0.86377,2.109863 1.855,4.1489 0.31152,0.623047 0.60889,1.260254 0.29736,0.637207 0.63721,1.2319 0.16992,0.424804 0.354,0.821289 0.18408,0.396484 0.354,0.79297 0.1416,0.311523 0.22656,0.509765 0.085,0.198243 0.11328,0.33984 z m -5.608,-7.9297 q -0.2832,-0.679688 -0.55224,-1.401856 -0.26905,-0.722168 -0.63721,-1.4019 -0.67969,-1.302734 -1.50098,-1.246094 -0.31152,0 -0.55225,0.169922 -0.24072,0.169922 -0.41064,0.41064 -0.16991,0.240718 -0.31152,0.52393 -0.1416,0.283212 -0.22656,0.53809 -0.31152,0.84961 -0.59472,1.75586 -0.28321,0.90625 -0.53809,1.7559 -0.19824,0.623046 0.0566,0.93457 0.16992,0.283203 0.87793,0.339844 0.62305,0.02832 1.10449,0.04248 0.48145,0.01416 0.79297,-0.01416 0.62305,0 1.64258,-0.169922 1.04785,-0.169922 1.24609,-0.93457 0.085,-0.453125 -0.11328,-0.764649 -0.0566,-0.113281 -0.15576,-0.269043 -0.0991,-0.155761 -0.12744,-0.26904 z m 23.87438,-7.815901 q 0.59472,0.594727 0.94873,1.302735 l 0.72217,1.4443 q 0.39648,0.821289 0.24072,1.656738 -0.15576,0.835449 -0.92041,1.6284 -0.59472,0.623047 -1.98242,0.991211 -0.50977,0.141602 -1.09033,0.297363 -0.58057,0.155762 -0.80713,0.66553 -0.16992,0.481446 0.085,0.991211 0.2832,0.538086 0.45312,0.87793 0.16993,0.339844 0.2832,0.50977 0.14161,0.283203 0.36817,0.637207 0.22656,0.354004 0.53809,0.80713 0.65136,0.90625 1.37353,1.699219 0.72217,0.792969 1.4585,1.5293 l 0.1416,0.1416 q 0.62305,0.623047 0.0283,1.217773 -0.65136,0.651367 -1.24609,0.02832 l -0.84961,-0.84961 q 0,0 -0.67969,-0.73633 -0.67969,-0.84961 -1.27441,-1.78418 -0.42481,-0.623047 -0.86377,-1.203613 -0.43897,-0.580567 -0.83545,-1.2603 -1.13282,-2.039063 -2.80372,-2.69043 -1.78417,-0.651367 -2.60546,0.509765 -0.25489,0.396485 -0.25489,0.87793 v 6.1455 0.36816 q 0,0.84961 -0.87793,0.87793 -0.87793,-0.02832 -0.87793,-1.076172 0,-0.651367 0.0425,-1.345215 0.0425,-0.693848 0.0708,-1.4868 0.0283,-0.538086 -0.0142,-1.104492 -0.0425,-0.566406 -0.0425,-1.1045 0,-0.538094 0.0283,-1.0762 0.0283,-0.538106 0.0283,-1.0762 0.0283,-1.274414 -0.085,-2.633789 0,-0.93457 0.0425,-1.897461 0.0425,-0.962891 0.0142,-1.9541 -0.0283,-0.509766 -0.0283,-1.146973 0,-0.637207 0.16992,-1.147 0.50977,-0.679687 2.40723,-0.679687 h 0.87793 q 1.01953,0 2.05322,0.08496 1.0337,0.08496 2.0532,0.02832 2.35059,-0.113282 3.70996,0.93457 z m -7.9582,6.117 q 1.07617,0.02832 1.89746,0.02832 0.82129,0 1.3877,-0.05664 0.53809,-0.05664 1.20361,-0.141602 0.66553,-0.08496 1.4585,-0.22656 1.61426,-0.339843 2.09571,-1.500976 0.19824,-0.424805 0.1416,-0.934571 -0.0566,-0.509765 -0.32568,-0.93457 -0.26904,-0.424804 -0.67969,-0.72217 -0.41065,-0.297365 -0.89209,-0.50977 -0.48144,-0.212404 -0.93457,-0.29736 -1.18946,-0.226562 -2.36475,-0.184082 -1.17529,0.04248 -2.3647,-0.01416 -0.22656,0 -0.43896,-0.01416 -0.21241,-0.01416 -0.43896,-0.01416 -0.59473,-0.02832 -0.90625,0.311524 -0.25489,0.283203 -0.19825,0.792968 0.0283,0.141602 0.0283,0.594727 -0.0283,0.424805 -0.0991,0.821289 -0.0708,0.396484 -0.0991,0.79297 -0.16992,1.104492 0.25489,1.642578 0.36816,0.509766 1.27441,0.566406 z"
         id="path3"
         style="fill:#d4af37;fill-opacity:1"
         inkscape:connector-curvature="0" />
    </g>
    <g
       id="SvgjsG1009"
       rel="mainfill"
       name="symbol"
       transform="matrix(0.18129753,0,0,0.18129753,-4.3388605,-1.38747)"
       style="fill:#d4af37;fill-opacity:1">
      <path
         d="m 634.152,540.821 c 0.026,-0.275 0.164,-0.518 0.164,-0.802 v -90.08 l -67.619,-70.073 c 45.417,-32.927 74.489,-69.234 76.674,-72.001 l 4.327,-5.488 -4.327,-5.489 c -2.148,-2.726 -30.359,-37.98 -74.588,-70.496 l 61.553,-56.655 V 53.619 c 8.673,-3.59 14.792,-12.121 14.792,-22.073 0,-13.176 -10.721,-23.893 -23.893,-23.893 -13.173,0 -23.894,10.717 -23.894,23.893 0,9.743 5.882,18.112 14.26,21.827 v 108.151 l -58.57,53.912 c -36.847,-24.26 -82.548,-44.495 -132.53,-44.495 -11.27,0 -22.329,1.043 -33.114,2.914 V 88.823 L 409.68,55.417 c 0.064,0.004 0.128,0.023 0.201,0.023 13.172,0 23.893,-10.717 23.893,-23.894 0,-13.176 -10.721,-23.893 -23.893,-23.893 -13.172,0 -23.893,10.717 -23.893,23.893 0,6.221 2.442,11.842 6.348,16.095 l -23.683,35.502 v 94.896 c -42.362,11.352 -79.767,34.706 -108.728,57.79 V 131.043 H 212.138 V 53.509 c 8.517,-3.654 14.508,-12.121 14.508,-21.963 0,-13.176 -10.721,-23.893 -23.893,-23.893 -13.173,0 -23.894,10.717 -23.894,23.893 0,9.861 6,18.336 14.545,21.981 v 96.251 h 47.787 v 101.885 c -26.071,23.357 -41.979,43.208 -43.57,45.225 l -4.326,5.489 4.326,5.488 c 2.306,2.922 34.523,43.153 84.286,77.369 l -95.144,95.152 v 60.191 c -8.571,3.632 -14.6,12.135 -14.6,22.019 0,13.177 10.721,23.894 23.894,23.894 13.173,0 23.894,-10.717 23.894,-23.894 0,-9.824 -5.964,-18.272 -14.453,-21.94 v -52.512 l 92.472,-92.477 c 29.793,18.176 64.701,33.009 102.544,37.02 V 540.02 c 0,0.192 0.101,0.353 0.109,0.546 -8.589,3.626 -14.635,12.134 -14.635,22.031 0,13.177 10.721,23.894 23.893,23.894 13.172,0 23.893,-10.717 23.893,-23.894 0,-9.897 -6.046,-18.405 -14.636,-22.031 0.009,-0.193 0.11,-0.354 0.11,-0.546 V 433.776 c 0.421,0 0.832,0.037 1.253,0.037 49.085,0 94.037,-19.522 130.535,-43.195 l 64.545,66.887 v 82.515 c 0,0.138 0.073,0.253 0.073,0.389 -8.845,3.504 -15.139,12.104 -15.139,22.188 0,13.177 10.722,23.894 23.893,23.894 13.173,0 23.895,-10.717 23.895,-23.894 -10e-4,-9.701 -5.828,-18.03 -14.151,-21.776 z M 418.305,232.499 c 29.328,0 53.092,23.765 53.092,53.083 0,29.327 -23.765,53.083 -53.092,53.083 -29.309,0 -53.074,-23.757 -53.074,-53.083 0.001,-29.319 23.766,-53.083 53.074,-53.083 z m -202.15,69.878 c 14.901,-17.175 64.517,-70.079 129.007,-97.165 -21.854,19.895 -35.657,48.481 -35.657,80.37 0,60.091 48.719,108.8 108.8,108.8 60.099,0 108.801,-48.709 108.801,-108.8 0,-33.699 -15.322,-63.804 -39.381,-83.759 68.451,25.887 121.608,82.675 137.112,100.559 -20.289,23.431 -104.949,113.713 -204.337,113.713 -99.25,0 -184.029,-90.291 -204.345,-113.718 z"
         id="path6"
         style="fill:#d4af37;fill-opacity:1"
         inkscape:connector-curvature="0" />
    </g>
  </g>
</svg>
