<svg xmlns="http://www.w3.org/2000/svg" viewBox="0 0 288 288"><defs><style><![CDATA[line,polyline,polygon,path,rect,circle{fill:none;stroke:#000000;stroke-linecap:round;stroke-linejoin:round;stroke-miterlimit:10.00}]]></style></defs><rect width="100%" height="100%" style="stroke:none;fill:#FFFFFF"/><defs><clipPath id="cpMC4wMHwyODguMDB8MjUyLjM3fDM1LjYz"><path d="M0 35.63h288v216.74H0z"/></clipPath></defs><defs><clipPath id="cpMC4wMHwyODguMDB8Mjg4LjAwfDAuMDA="><path d="M0 0h288v288H0z"/></clipPath></defs><defs><clipPath id="cpMjguNDR8MjMxLjQ5fDI0NC4xNXw0MS4xMQ=="><path d="M28.44 41.11h203.04v203.04H28.44z"/></clipPath></defs><path style="stroke-width:0.53;stroke:#EBEBEB;stroke-linecap:butt" clip-path="url(#cpMjguNDR8MjMxLjQ5fDI0NC4xNXw0MS4xMQ==)" d="M28.44 208.55h203.05M28.44 155.81h203.05M28.44 103.08h203.05M28.44 50.34h203.05"/><path style="stroke-width:1.07;stroke:#EBEBEB;stroke-linecap:butt" clip-path="url(#cpMjguNDR8MjMxLjQ5fDI0NC4xNXw0MS4xMQ==)" d="M28.44 234.92h203.05M28.44 182.18h203.05M28.44 129.45h203.05M28.44 76.71h203.05M57.45 244.15V41.11M105.79 244.15V41.11M154.14 244.15V41.11M202.48 244.15V41.11"/><path style="stroke-width:1.07;stroke:none;stroke-linecap:butt;fill:#FFFFD4" clip-path="url(#cpMjguNDR8MjMxLjQ5fDI0NC4xNXw0MS4xMQ==)" d="M35.7 129.45h43.51v105.48H35.7z"/><path style="stroke-width:1.07;stroke:none;stroke-linecap:butt;fill:#FED98E" clip-path="url(#cpMjguNDR8MjMxLjQ5fDI0NC4xNXw0MS4xMQ==)" d="M84.04 50.34h43.51v184.59H84.04z"/><path style="stroke-width:1.07;stroke:none;stroke-linecap:butt;fill:#FE9929" clip-path="url(#cpMjguNDR8MjMxLjQ5fDI0NC4xNXw0MS4xMQ==)" d="M132.38 129.45h43.51v105.48h-43.51z"/><path style="stroke-width:1.07;stroke:none;stroke-linecap:butt;fill:#CC4C02" clip-path="url(#cpMjguNDR8MjMxLjQ5fDI0NC4xNXw0MS4xMQ==)" d="M180.73 76.71h43.51v158.22h-43.51z"/><defs><clipPath id="cpMC4wMHwyODguMDB8Mjg4LjAwfDAuMDA="><path d="M0 0h288v288H0z"/></clipPath></defs><g clip-path="url(#cpMC4wMHwyODguMDB8Mjg4LjAwfDAuMDA=)"><text x="18.62" y="238.07" style="font-size:8.80px;fill:#4D4D4D;font-family:Arial" textLength="4.89" lengthAdjust="spacingAndGlyphs">0</text></g><g clip-path="url(#cpMC4wMHwyODguMDB8Mjg4LjAwfDAuMDA=)"><text x="18.62" y="185.33" style="font-size:8.80px;fill:#4D4D4D;font-family:Arial" textLength="4.89" lengthAdjust="spacingAndGlyphs">1</text></g><g clip-path="url(#cpMC4wMHwyODguMDB8Mjg4LjAwfDAuMDA=)"><text x="18.62" y="132.6" style="font-size:8.80px;fill:#4D4D4D;font-family:Arial" textLength="4.89" lengthAdjust="spacingAndGlyphs">2</text></g><g clip-path="url(#cpMC4wMHwyODguMDB8Mjg4LjAwfDAuMDA=)"><text x="18.62" y="79.86" style="font-size:8.80px;fill:#4D4D4D;font-family:Arial" textLength="4.89" lengthAdjust="spacingAndGlyphs">3</text></g><g clip-path="url(#cpMC4wMHwyODguMDB8Mjg4LjAwfDAuMDA=)"><text transform="rotate(-90 85.025 71.675)" style="font-size:11.00px;font-family:Arial" textLength="28.13" lengthAdjust="spacingAndGlyphs">Value</text></g><g clip-path="url(#cpMC4wMHwyODguMDB8Mjg4LjAwfDAuMDA=)"><text x="247.93" y="109.27" style="font-size:11.00px;font-family:Arial" textLength="23.85" lengthAdjust="spacingAndGlyphs">cond</text></g><path style="stroke-width:1.07;stroke:none;stroke-linejoin:miter;fill:#FFFFD4" clip-path="url(#cpMC4wMHwyODguMDB8Mjg4LjAwfDAuMDA=)" d="M248.64 116.72h15.86v15.86h-15.86z"/><path style="stroke-width:1.07;stroke:none;stroke-linejoin:miter;fill:#FED98E" clip-path="url(#cpMC4wMHwyODguMDB8Mjg4LjAwfDAuMDA=)" d="M248.64 134h15.86v15.86h-15.86z"/><path style="stroke-width:1.07;stroke:none;stroke-linejoin:miter;fill:#FE9929" clip-path="url(#cpMC4wMHwyODguMDB8Mjg4LjAwfDAuMDA=)" d="M248.64 151.28h15.86v15.86h-15.86z"/><path style="stroke-width:1.07;stroke:none;stroke-linejoin:miter;fill:#CC4C02" clip-path="url(#cpMC4wMHwyODguMDB8Mjg4LjAwfDAuMDA=)" d="M248.64 168.56h15.86v15.86h-15.86z"/><g clip-path="url(#cpMC4wMHwyODguMDB8Mjg4LjAwfDAuMDA=)"><text x="270.69" y="127.8" style="font-size:8.80px;font-family:Arial" textLength="5.87" lengthAdjust="spacingAndGlyphs">A</text></g><g clip-path="url(#cpMC4wMHwyODguMDB8Mjg4LjAwfDAuMDA=)"><text x="270.69" y="145.08" style="font-size:8.80px;font-family:Arial" textLength="5.87" lengthAdjust="spacingAndGlyphs">B</text></g><g clip-path="url(#cpMC4wMHwyODguMDB8Mjg4LjAwfDAuMDA=)"><text x="270.69" y="162.36" style="font-size:8.80px;font-family:Arial" textLength="6.36" lengthAdjust="spacingAndGlyphs">C</text></g><g clip-path="url(#cpMC4wMHwyODguMDB8Mjg4LjAwfDAuMDA=)"><text x="270.69" y="179.64" style="font-size:8.80px;font-family:Arial" textLength="6.36" lengthAdjust="spacingAndGlyphs">D</text></g></svg>